%TF.GenerationSoftware,KiCad,Pcbnew,8.0.6*%
%TF.CreationDate,2025-03-28T01:06:29-04:00*%
%TF.ProjectId,Keypad AIO,4b657970-6164-4204-9149-4f2e6b696361,rev?*%
%TF.SameCoordinates,Original*%
%TF.FileFunction,Copper,L1,Top*%
%TF.FilePolarity,Positive*%
%FSLAX46Y46*%
G04 Gerber Fmt 4.6, Leading zero omitted, Abs format (unit mm)*
G04 Created by KiCad (PCBNEW 8.0.6) date 2025-03-28 01:06:29*
%MOMM*%
%LPD*%
G01*
G04 APERTURE LIST*
G04 Aperture macros list*
%AMRoundRect*
0 Rectangle with rounded corners*
0 $1 Rounding radius*
0 $2 $3 $4 $5 $6 $7 $8 $9 X,Y pos of 4 corners*
0 Add a 4 corners polygon primitive as box body*
4,1,4,$2,$3,$4,$5,$6,$7,$8,$9,$2,$3,0*
0 Add four circle primitives for the rounded corners*
1,1,$1+$1,$2,$3*
1,1,$1+$1,$4,$5*
1,1,$1+$1,$6,$7*
1,1,$1+$1,$8,$9*
0 Add four rect primitives between the rounded corners*
20,1,$1+$1,$2,$3,$4,$5,0*
20,1,$1+$1,$4,$5,$6,$7,0*
20,1,$1+$1,$6,$7,$8,$9,0*
20,1,$1+$1,$8,$9,$2,$3,0*%
G04 Aperture macros list end*
%TA.AperFunction,ComponentPad*%
%ADD10C,0.700000*%
%TD*%
%TA.AperFunction,ComponentPad*%
%ADD11C,4.400000*%
%TD*%
%TA.AperFunction,ComponentPad*%
%ADD12O,1.700000X1.700000*%
%TD*%
%TA.AperFunction,SMDPad,CuDef*%
%ADD13R,3.500000X1.700000*%
%TD*%
%TA.AperFunction,ComponentPad*%
%ADD14R,1.700000X1.700000*%
%TD*%
%TA.AperFunction,SMDPad,CuDef*%
%ADD15R,1.700000X3.500000*%
%TD*%
%TA.AperFunction,ComponentPad*%
%ADD16RoundRect,0.250000X-0.725000X0.600000X-0.725000X-0.600000X0.725000X-0.600000X0.725000X0.600000X0*%
%TD*%
%TA.AperFunction,ComponentPad*%
%ADD17O,1.950000X1.700000*%
%TD*%
%TA.AperFunction,ComponentPad*%
%ADD18RoundRect,0.250000X-0.600000X-0.750000X0.600000X-0.750000X0.600000X0.750000X-0.600000X0.750000X0*%
%TD*%
%TA.AperFunction,ComponentPad*%
%ADD19O,1.700000X2.000000*%
%TD*%
%TA.AperFunction,ComponentPad*%
%ADD20R,1.600000X1.600000*%
%TD*%
%TA.AperFunction,ComponentPad*%
%ADD21O,1.600000X1.600000*%
%TD*%
%TA.AperFunction,ViaPad*%
%ADD22C,0.600000*%
%TD*%
%TA.AperFunction,Conductor*%
%ADD23C,0.200000*%
%TD*%
G04 APERTURE END LIST*
D10*
%TO.P,,1*%
%TO.N,N/C*%
X97350000Y-58100000D03*
X97833274Y-56933274D03*
X97833274Y-59266726D03*
X99000000Y-56450000D03*
D11*
X99000000Y-58100000D03*
D10*
X99000000Y-59750000D03*
X100166726Y-56933274D03*
X100166726Y-59266726D03*
X100650000Y-58100000D03*
%TD*%
%TO.P,,1*%
%TO.N,N/C*%
X173450000Y-19900000D03*
X173933274Y-18733274D03*
X173933274Y-21066726D03*
X175100000Y-18250000D03*
D11*
X175100000Y-19900000D03*
D10*
X175100000Y-21550000D03*
X176266726Y-18733274D03*
X176266726Y-21066726D03*
X176750000Y-19900000D03*
%TD*%
%TO.P,,1*%
%TO.N,N/C*%
X116400000Y-19950000D03*
X116883274Y-18783274D03*
X116883274Y-21116726D03*
X118050000Y-18300000D03*
D11*
X118050000Y-19950000D03*
D10*
X118050000Y-21600000D03*
X119216726Y-18783274D03*
X119216726Y-21116726D03*
X119700000Y-19950000D03*
%TD*%
%TO.P,,1*%
%TO.N,N/C*%
X135400000Y-19950000D03*
X135883274Y-18783274D03*
X135883274Y-21116726D03*
X137050000Y-18300000D03*
D11*
X137050000Y-19950000D03*
D10*
X137050000Y-21600000D03*
X138216726Y-18783274D03*
X138216726Y-21116726D03*
X138700000Y-19950000D03*
%TD*%
%TO.P,,1*%
%TO.N,N/C*%
X154400000Y-115200000D03*
X154883274Y-114033274D03*
X154883274Y-116366726D03*
X156050000Y-113550000D03*
D11*
X156050000Y-115200000D03*
D10*
X156050000Y-116850000D03*
X157216726Y-114033274D03*
X157216726Y-116366726D03*
X157700000Y-115200000D03*
%TD*%
D12*
%TO.P,U1,1,GPIO0*%
%TO.N,Net-(J2-Pin_4)*%
X146030000Y-169360000D03*
D13*
X146930000Y-169360000D03*
D12*
%TO.P,U1,2,GPIO1*%
%TO.N,Net-(J2-Pin_5)*%
X146030000Y-166820000D03*
D13*
X146930000Y-166820000D03*
D14*
%TO.P,U1,3,GND*%
%TO.N,unconnected-(U1-GND-Pad3)*%
X146030000Y-164280000D03*
D13*
X146930000Y-164280000D03*
D12*
%TO.P,U1,4,GPIO2*%
%TO.N,unconnected-(U1-GPIO2-Pad4)*%
X146030000Y-161740000D03*
D13*
X146930000Y-161740000D03*
D12*
%TO.P,U1,5,GPIO3*%
%TO.N,unconnected-(U1-GPIO3-Pad5)*%
X146030000Y-159200000D03*
D13*
X146930000Y-159200000D03*
D12*
%TO.P,U1,6,GPIO4*%
%TO.N,unconnected-(U1-GPIO4-Pad6)*%
X146030000Y-156660000D03*
D13*
X146930000Y-156660000D03*
D12*
%TO.P,U1,7,GPIO5*%
%TO.N,unconnected-(U1-GPIO5-Pad7)*%
X146030000Y-154120000D03*
D13*
X146930000Y-154120000D03*
D14*
%TO.P,U1,8,GND*%
%TO.N,unconnected-(U1-GND-Pad8)*%
X146030000Y-151580000D03*
D13*
X146930000Y-151580000D03*
D12*
%TO.P,U1,9,GPIO6*%
%TO.N,unconnected-(U1-GPIO6-Pad9)*%
X146030000Y-149040000D03*
D13*
X146930000Y-149040000D03*
D12*
%TO.P,U1,10,GPIO7*%
%TO.N,unconnected-(U1-GPIO7-Pad10)*%
X146030000Y-146500000D03*
D13*
X146930000Y-146500000D03*
D12*
%TO.P,U1,11,GPIO8*%
%TO.N,unconnected-(U1-GPIO8-Pad11)*%
X146030000Y-143960000D03*
D13*
X146930000Y-143960000D03*
D12*
%TO.P,U1,12,GPIO9*%
%TO.N,unconnected-(U1-GPIO9-Pad12)*%
X146030000Y-141420000D03*
D13*
X146930000Y-141420000D03*
D14*
%TO.P,U1,13,GND*%
%TO.N,unconnected-(U1-GND-Pad13)*%
X146030000Y-138880000D03*
D13*
X146930000Y-138880000D03*
D12*
%TO.P,U1,14,GPIO10*%
%TO.N,unconnected-(U1-GPIO10-Pad14)*%
X146030000Y-136340000D03*
D13*
X146930000Y-136340000D03*
D12*
%TO.P,U1,15,GPIO11*%
%TO.N,unconnected-(U1-GPIO11-Pad15)*%
X146030000Y-133800000D03*
D13*
X146930000Y-133800000D03*
D12*
%TO.P,U1,16,GPIO12*%
%TO.N,unconnected-(U1-GPIO12-Pad16)*%
X146030000Y-131260000D03*
D13*
X146930000Y-131260000D03*
D12*
%TO.P,U1,17,GPIO13*%
%TO.N,unconnected-(U1-GPIO13-Pad17)*%
X146030000Y-128720000D03*
D13*
X146930000Y-128720000D03*
D14*
%TO.P,U1,18,GND*%
%TO.N,unconnected-(U1-GND-Pad18)*%
X146030000Y-126180000D03*
D13*
X146930000Y-126180000D03*
D12*
%TO.P,U1,19,GPIO14*%
%TO.N,unconnected-(U1-GPIO14-Pad19)*%
X146030000Y-123640000D03*
D13*
X146930000Y-123640000D03*
D12*
%TO.P,U1,20,GPIO15*%
%TO.N,unconnected-(U1-GPIO15-Pad20)*%
X146030000Y-121100000D03*
D13*
X146930000Y-121100000D03*
D12*
%TO.P,U1,21,GPIO16*%
%TO.N,COL 1*%
X128250000Y-121100000D03*
D13*
X127350000Y-121100000D03*
D12*
%TO.P,U1,22,GPIO17*%
%TO.N,COL 2*%
X128250000Y-123640000D03*
D13*
X127350000Y-123640000D03*
D14*
%TO.P,U1,23,GND*%
%TO.N,COL 3*%
X128250000Y-126180000D03*
D13*
X127350000Y-126180000D03*
D12*
%TO.P,U1,24,GPIO18*%
%TO.N,COL 4*%
X128250000Y-128720000D03*
D13*
X127350000Y-128720000D03*
D12*
%TO.P,U1,25,GPIO19*%
%TO.N,COL 5*%
X128250000Y-131260000D03*
D13*
X127350000Y-131260000D03*
D12*
%TO.P,U1,26,GPIO20*%
%TO.N,COL 6*%
X128250000Y-133800000D03*
D13*
X127350000Y-133800000D03*
D12*
%TO.P,U1,27,GPIO21*%
%TO.N,ROW 5*%
X128250000Y-136340000D03*
D13*
X127350000Y-136340000D03*
D14*
%TO.P,U1,28,GND*%
%TO.N,unconnected-(U1-GND-Pad28)*%
X128250000Y-138880000D03*
D13*
X127350000Y-138880000D03*
D12*
%TO.P,U1,29,GPIO22*%
%TO.N,ROW 4*%
X128250000Y-141420000D03*
D13*
X127350000Y-141420000D03*
D12*
%TO.P,U1,30,RUN*%
%TO.N,unconnected-(U1-RUN-Pad30)*%
X128250000Y-143960000D03*
D13*
X127350000Y-143960000D03*
D12*
%TO.P,U1,31,GPIO26_ADC0*%
%TO.N,ROW 3*%
X128250000Y-146500000D03*
D13*
X127350000Y-146500000D03*
D12*
%TO.P,U1,32,GPIO27_ADC1*%
%TO.N,ROW 2*%
X128250000Y-149040000D03*
D13*
X127350000Y-149040000D03*
D14*
%TO.P,U1,33,AGND*%
%TO.N,unconnected-(U1-AGND-Pad33)*%
X128250000Y-151580000D03*
D13*
X127350000Y-151580000D03*
D12*
%TO.P,U1,34,GPIO28_ADC2*%
%TO.N,ROW 1*%
X128250000Y-154120000D03*
D13*
X127350000Y-154120000D03*
D12*
%TO.P,U1,35,ADC_VREF*%
%TO.N,unconnected-(U1-ADC_VREF-Pad35)*%
X128250000Y-156660000D03*
D13*
X127350000Y-156660000D03*
D12*
%TO.P,U1,36,3V3*%
%TO.N,unconnected-(U1-3V3-Pad36)*%
X128250000Y-159200000D03*
D13*
X127350000Y-159200000D03*
D12*
%TO.P,U1,37,3V3_EN*%
%TO.N,unconnected-(U1-3V3_EN-Pad37)*%
X128250000Y-161740000D03*
D13*
X127350000Y-161740000D03*
D14*
%TO.P,U1,38,GND*%
%TO.N,Net-(J1-Pin_2)*%
X128250000Y-164280000D03*
D13*
X127350000Y-164280000D03*
D12*
%TO.P,U1,39,VSYS*%
%TO.N,Net-(J1-Pin_1)*%
X128250000Y-166820000D03*
D13*
X127350000Y-166820000D03*
D12*
%TO.P,U1,40,VBUS*%
%TO.N,unconnected-(U1-VBUS-Pad40)*%
X128250000Y-169360000D03*
D13*
X127350000Y-169360000D03*
D12*
%TO.P,U1,41,SWCLK*%
%TO.N,Net-(J2-Pin_1)*%
X139680000Y-121330000D03*
D15*
X139680000Y-120430000D03*
D14*
%TO.P,U1,42,GND*%
%TO.N,Net-(J2-Pin_2)*%
X137140000Y-121330000D03*
D15*
X137140000Y-120430000D03*
D12*
%TO.P,U1,43,SWDIO*%
%TO.N,Net-(J2-Pin_3)*%
X134600000Y-121330000D03*
D15*
X134600000Y-120430000D03*
%TD*%
D10*
%TO.P,,1*%
%TO.N,N/C*%
X97250000Y-96150000D03*
X97733274Y-94983274D03*
X97733274Y-97316726D03*
X98900000Y-94500000D03*
D11*
X98900000Y-96150000D03*
D10*
X98900000Y-97800000D03*
X100066726Y-94983274D03*
X100066726Y-97316726D03*
X100550000Y-96150000D03*
%TD*%
%TO.P,,1*%
%TO.N,N/C*%
X173550000Y-58100000D03*
X174033274Y-56933274D03*
X174033274Y-59266726D03*
X175200000Y-56450000D03*
D11*
X175200000Y-58100000D03*
D10*
X175200000Y-59750000D03*
X176366726Y-56933274D03*
X176366726Y-59266726D03*
X176850000Y-58100000D03*
%TD*%
%TO.P,,1*%
%TO.N,N/C*%
X116400000Y-58100000D03*
X116883274Y-56933274D03*
X116883274Y-59266726D03*
X118050000Y-56450000D03*
D11*
X118050000Y-58100000D03*
D10*
X118050000Y-59750000D03*
X119216726Y-56933274D03*
X119216726Y-59266726D03*
X119700000Y-58100000D03*
%TD*%
%TO.P,,1*%
%TO.N,N/C*%
X173583274Y-133200000D03*
X174066548Y-132033274D03*
X174066548Y-134366726D03*
X175233274Y-131550000D03*
D11*
X175233274Y-133200000D03*
D10*
X175233274Y-134850000D03*
X176400000Y-132033274D03*
X176400000Y-134366726D03*
X176883274Y-133200000D03*
%TD*%
%TO.P,,1*%
%TO.N,N/C*%
X78350000Y-58100000D03*
X78833274Y-56933274D03*
X78833274Y-59266726D03*
X80000000Y-56450000D03*
D11*
X80000000Y-58100000D03*
D10*
X80000000Y-59750000D03*
X81166726Y-56933274D03*
X81166726Y-59266726D03*
X81650000Y-58100000D03*
%TD*%
%TO.P,,1*%
%TO.N,N/C*%
X135450000Y-39050000D03*
X135933274Y-37883274D03*
X135933274Y-40216726D03*
X137100000Y-37400000D03*
D11*
X137100000Y-39050000D03*
D10*
X137100000Y-40700000D03*
X138266726Y-37883274D03*
X138266726Y-40216726D03*
X138750000Y-39050000D03*
%TD*%
%TO.P,,1*%
%TO.N,N/C*%
X173500000Y-77100000D03*
X173983274Y-75933274D03*
X173983274Y-78266726D03*
X175150000Y-75450000D03*
D11*
X175150000Y-77100000D03*
D10*
X175150000Y-78750000D03*
X176316726Y-75933274D03*
X176316726Y-78266726D03*
X176800000Y-77100000D03*
%TD*%
%TO.P,,1*%
%TO.N,N/C*%
X116450000Y-77150000D03*
X116933274Y-75983274D03*
X116933274Y-78316726D03*
X118100000Y-75500000D03*
D11*
X118100000Y-77150000D03*
D10*
X118100000Y-78800000D03*
X119266726Y-75983274D03*
X119266726Y-78316726D03*
X119750000Y-77150000D03*
%TD*%
%TO.P,,1*%
%TO.N,N/C*%
X154500000Y-77100000D03*
X154983274Y-75933274D03*
X154983274Y-78266726D03*
X156150000Y-75450000D03*
D11*
X156150000Y-77100000D03*
D10*
X156150000Y-78750000D03*
X157316726Y-75933274D03*
X157316726Y-78266726D03*
X157800000Y-77100000D03*
%TD*%
%TO.P,,1*%
%TO.N,N/C*%
X97300000Y-39050000D03*
X97783274Y-37883274D03*
X97783274Y-40216726D03*
X98950000Y-37400000D03*
D11*
X98950000Y-39050000D03*
D10*
X98950000Y-40700000D03*
X100116726Y-37883274D03*
X100116726Y-40216726D03*
X100600000Y-39050000D03*
%TD*%
%TO.P,,1*%
%TO.N,N/C*%
X135450000Y-77150000D03*
X135933274Y-75983274D03*
X135933274Y-78316726D03*
X137100000Y-75500000D03*
D11*
X137100000Y-77150000D03*
D10*
X137100000Y-78800000D03*
X138266726Y-75983274D03*
X138266726Y-78316726D03*
X138750000Y-77150000D03*
%TD*%
%TO.P,,1*%
%TO.N,N/C*%
X97350000Y-115250000D03*
X97833274Y-114083274D03*
X97833274Y-116416726D03*
X99000000Y-113600000D03*
D11*
X99000000Y-115250000D03*
D10*
X99000000Y-116900000D03*
X100166726Y-114083274D03*
X100166726Y-116416726D03*
X100650000Y-115250000D03*
%TD*%
%TO.P,,1*%
%TO.N,N/C*%
X173550000Y-96200000D03*
X174033274Y-95033274D03*
X174033274Y-97366726D03*
X175200000Y-94550000D03*
D11*
X175200000Y-96200000D03*
D10*
X175200000Y-97850000D03*
X176366726Y-95033274D03*
X176366726Y-97366726D03*
X176850000Y-96200000D03*
%TD*%
%TO.P,,1*%
%TO.N,N/C*%
X192650000Y-77150000D03*
X193133274Y-75983274D03*
X193133274Y-78316726D03*
X194300000Y-75500000D03*
D11*
X194300000Y-77150000D03*
D10*
X194300000Y-78800000D03*
X195466726Y-75983274D03*
X195466726Y-78316726D03*
X195950000Y-77150000D03*
%TD*%
%TO.P,,1*%
%TO.N,N/C*%
X154500000Y-39000000D03*
X154983274Y-37833274D03*
X154983274Y-40166726D03*
X156150000Y-37350000D03*
D11*
X156150000Y-39000000D03*
D10*
X156150000Y-40650000D03*
X157316726Y-37833274D03*
X157316726Y-40166726D03*
X157800000Y-39000000D03*
%TD*%
%TO.P,,1*%
%TO.N,N/C*%
X135400000Y-115250000D03*
X135883274Y-114083274D03*
X135883274Y-116416726D03*
X137050000Y-113600000D03*
D11*
X137050000Y-115250000D03*
D10*
X137050000Y-116900000D03*
X138216726Y-114083274D03*
X138216726Y-116416726D03*
X138700000Y-115250000D03*
%TD*%
%TO.P,,1*%
%TO.N,N/C*%
X135400000Y-58100000D03*
X135883274Y-56933274D03*
X135883274Y-59266726D03*
X137050000Y-56450000D03*
D11*
X137050000Y-58100000D03*
D10*
X137050000Y-59750000D03*
X138216726Y-56933274D03*
X138216726Y-59266726D03*
X138700000Y-58100000D03*
%TD*%
%TO.P,,1*%
%TO.N,N/C*%
X78300000Y-39050000D03*
X78783274Y-37883274D03*
X78783274Y-40216726D03*
X79950000Y-37400000D03*
D11*
X79950000Y-39050000D03*
D10*
X79950000Y-40700000D03*
X81116726Y-37883274D03*
X81116726Y-40216726D03*
X81600000Y-39050000D03*
%TD*%
D16*
%TO.P,J2,1,Pin_1*%
%TO.N,Net-(J2-Pin_1)*%
X158150000Y-122150000D03*
D17*
%TO.P,J2,2,Pin_2*%
%TO.N,Net-(J2-Pin_2)*%
X158150000Y-124650000D03*
%TO.P,J2,3,Pin_3*%
%TO.N,Net-(J2-Pin_3)*%
X158150000Y-127150000D03*
%TO.P,J2,4,Pin_4*%
%TO.N,Net-(J2-Pin_4)*%
X158150000Y-129650000D03*
%TO.P,J2,5,Pin_5*%
%TO.N,Net-(J2-Pin_5)*%
X158150000Y-132150000D03*
%TD*%
D10*
%TO.P,,1*%
%TO.N,N/C*%
X192650000Y-20000000D03*
X193133274Y-18833274D03*
X193133274Y-21166726D03*
X194300000Y-18350000D03*
D11*
X194300000Y-20000000D03*
D10*
X194300000Y-21650000D03*
X195466726Y-18833274D03*
X195466726Y-21166726D03*
X195950000Y-20000000D03*
%TD*%
%TO.P,,1*%
%TO.N,N/C*%
X78350000Y-20000000D03*
X78833274Y-18833274D03*
X78833274Y-21166726D03*
X80000000Y-18350000D03*
D11*
X80000000Y-20000000D03*
D10*
X80000000Y-21650000D03*
X81166726Y-18833274D03*
X81166726Y-21166726D03*
X81650000Y-20000000D03*
%TD*%
%TO.P,,1*%
%TO.N,N/C*%
X116400000Y-115250000D03*
X116883274Y-114083274D03*
X116883274Y-116416726D03*
X118050000Y-113600000D03*
D11*
X118050000Y-115250000D03*
D10*
X118050000Y-116900000D03*
X119216726Y-114083274D03*
X119216726Y-116416726D03*
X119700000Y-115250000D03*
%TD*%
%TO.P,,1*%
%TO.N,N/C*%
X116450000Y-39050000D03*
X116933274Y-37883274D03*
X116933274Y-40216726D03*
X118100000Y-37400000D03*
D11*
X118100000Y-39050000D03*
D10*
X118100000Y-40700000D03*
X119266726Y-37883274D03*
X119266726Y-40216726D03*
X119750000Y-39050000D03*
%TD*%
%TO.P,,1*%
%TO.N,N/C*%
X192600000Y-96200000D03*
X193083274Y-95033274D03*
X193083274Y-97366726D03*
X194250000Y-94550000D03*
D11*
X194250000Y-96200000D03*
D10*
X194250000Y-97850000D03*
X195416726Y-95033274D03*
X195416726Y-97366726D03*
X195900000Y-96200000D03*
%TD*%
%TO.P,,1*%
%TO.N,N/C*%
X135400000Y-96200000D03*
X135883274Y-95033274D03*
X135883274Y-97366726D03*
X137050000Y-94550000D03*
D11*
X137050000Y-96200000D03*
D10*
X137050000Y-97850000D03*
X138216726Y-95033274D03*
X138216726Y-97366726D03*
X138700000Y-96200000D03*
%TD*%
%TO.P,,1*%
%TO.N,N/C*%
X154550000Y-58100000D03*
X155033274Y-56933274D03*
X155033274Y-59266726D03*
X156200000Y-56450000D03*
D11*
X156200000Y-58100000D03*
D10*
X156200000Y-59750000D03*
X157366726Y-56933274D03*
X157366726Y-59266726D03*
X157850000Y-58100000D03*
%TD*%
%TO.P,,1*%
%TO.N,N/C*%
X192600000Y-39050000D03*
X193083274Y-37883274D03*
X193083274Y-40216726D03*
X194250000Y-37400000D03*
D11*
X194250000Y-39050000D03*
D10*
X194250000Y-40700000D03*
X195416726Y-37883274D03*
X195416726Y-40216726D03*
X195900000Y-39050000D03*
%TD*%
%TO.P,,1*%
%TO.N,N/C*%
X154550000Y-96200000D03*
X155033274Y-95033274D03*
X155033274Y-97366726D03*
X156200000Y-94550000D03*
D11*
X156200000Y-96200000D03*
D10*
X156200000Y-97850000D03*
X157366726Y-95033274D03*
X157366726Y-97366726D03*
X157850000Y-96200000D03*
%TD*%
%TO.P,,1*%
%TO.N,N/C*%
X116400000Y-96200000D03*
X116883274Y-95033274D03*
X116883274Y-97366726D03*
X118050000Y-94550000D03*
D11*
X118050000Y-96200000D03*
D10*
X118050000Y-97850000D03*
X119216726Y-95033274D03*
X119216726Y-97366726D03*
X119700000Y-96200000D03*
%TD*%
%TO.P,,1*%
%TO.N,N/C*%
X97300000Y-77150000D03*
X97783274Y-75983274D03*
X97783274Y-78316726D03*
X98950000Y-75500000D03*
D11*
X98950000Y-77150000D03*
D10*
X98950000Y-78800000D03*
X100116726Y-75983274D03*
X100116726Y-78316726D03*
X100600000Y-77150000D03*
%TD*%
D18*
%TO.P,J1,1,Pin_1*%
%TO.N,Net-(J1-Pin_1)*%
X115900000Y-124850000D03*
D19*
%TO.P,J1,2,Pin_2*%
%TO.N,Net-(J1-Pin_2)*%
X118400000Y-124850000D03*
%TD*%
D10*
%TO.P,,1*%
%TO.N,N/C*%
X78300000Y-77150000D03*
X78783274Y-75983274D03*
X78783274Y-78316726D03*
X79950000Y-75500000D03*
D11*
X79950000Y-77150000D03*
D10*
X79950000Y-78800000D03*
X81116726Y-75983274D03*
X81116726Y-78316726D03*
X81600000Y-77150000D03*
%TD*%
%TO.P,,1*%
%TO.N,N/C*%
X97350000Y-20000000D03*
X97833274Y-18833274D03*
X97833274Y-21166726D03*
X99000000Y-18350000D03*
D11*
X99000000Y-20000000D03*
D10*
X99000000Y-21650000D03*
X100166726Y-18833274D03*
X100166726Y-21166726D03*
X100650000Y-20000000D03*
%TD*%
%TO.P,,1*%
%TO.N,N/C*%
X78250000Y-96150000D03*
X78733274Y-94983274D03*
X78733274Y-97316726D03*
X79900000Y-94500000D03*
D11*
X79900000Y-96150000D03*
D10*
X79900000Y-97800000D03*
X81066726Y-94983274D03*
X81066726Y-97316726D03*
X81550000Y-96150000D03*
%TD*%
%TO.P,,1*%
%TO.N,N/C*%
X192550000Y-58100000D03*
X193033274Y-56933274D03*
X193033274Y-59266726D03*
X194200000Y-56450000D03*
D11*
X194200000Y-58100000D03*
D10*
X194200000Y-59750000D03*
X195366726Y-56933274D03*
X195366726Y-59266726D03*
X195850000Y-58100000D03*
%TD*%
%TO.P,,1*%
%TO.N,N/C*%
X192650000Y-133200000D03*
X193133274Y-132033274D03*
X193133274Y-134366726D03*
X194300000Y-131550000D03*
D11*
X194300000Y-133200000D03*
D10*
X194300000Y-134850000D03*
X195466726Y-132033274D03*
X195466726Y-134366726D03*
X195950000Y-133200000D03*
%TD*%
%TO.P,,1*%
%TO.N,N/C*%
X154450000Y-19900000D03*
X154933274Y-18733274D03*
X154933274Y-21066726D03*
X156100000Y-18250000D03*
D11*
X156100000Y-19900000D03*
D10*
X156100000Y-21550000D03*
X157266726Y-18733274D03*
X157266726Y-21066726D03*
X157750000Y-19900000D03*
%TD*%
%TO.P,,1*%
%TO.N,N/C*%
X111850000Y-168850000D03*
X112333274Y-167683274D03*
X112333274Y-170016726D03*
X113500000Y-167200000D03*
D11*
X113500000Y-168850000D03*
D10*
X113500000Y-170500000D03*
X114666726Y-167683274D03*
X114666726Y-170016726D03*
X115150000Y-168850000D03*
%TD*%
%TO.P,,1*%
%TO.N,N/C*%
X173500000Y-39000000D03*
X173983274Y-37833274D03*
X173983274Y-40166726D03*
X175150000Y-37350000D03*
D11*
X175150000Y-39000000D03*
D10*
X175150000Y-40650000D03*
X176316726Y-37833274D03*
X176316726Y-40166726D03*
X176800000Y-39000000D03*
%TD*%
%TO.P,,1*%
%TO.N,N/C*%
X78350000Y-115250000D03*
X78833274Y-114083274D03*
X78833274Y-116416726D03*
X80000000Y-113600000D03*
D11*
X80000000Y-115250000D03*
D10*
X80000000Y-116900000D03*
X81166726Y-114083274D03*
X81166726Y-116416726D03*
X81650000Y-115250000D03*
%TD*%
%TO.P,,1*%
%TO.N,N/C*%
X159150000Y-168850000D03*
X159633274Y-167683274D03*
X159633274Y-170016726D03*
X160800000Y-167200000D03*
D11*
X160800000Y-168850000D03*
D10*
X160800000Y-170500000D03*
X161966726Y-167683274D03*
X161966726Y-170016726D03*
X162450000Y-168850000D03*
%TD*%
D20*
%TO.P,D18,1,K*%
%TO.N,COL 6*%
X180990000Y-76225000D03*
D21*
%TO.P,D18,2,A*%
%TO.N,Net-(D18-A)*%
X188610000Y-76225000D03*
%TD*%
D20*
%TO.P,D14,1,K*%
%TO.N,COL 2*%
X104690000Y-76235000D03*
D21*
%TO.P,D14,2,A*%
%TO.N,Net-(D14-A)*%
X112310000Y-76235000D03*
%TD*%
D20*
%TO.P,D30,1,K*%
%TO.N,COL 6*%
X172550000Y-121950000D03*
D21*
%TO.P,D30,2,A*%
%TO.N,Net-(D30-A)*%
X172550000Y-114330000D03*
%TD*%
D20*
%TO.P,D6,1,K*%
%TO.N,COL 6*%
X180890000Y-38135000D03*
D21*
%TO.P,D6,2,A*%
%TO.N,Net-(D6-A)*%
X188510000Y-38135000D03*
%TD*%
D20*
%TO.P,D15,1,K*%
%TO.N,COL 3*%
X123840000Y-76235000D03*
D21*
%TO.P,D15,2,A*%
%TO.N,Net-(D15-A)*%
X131460000Y-76235000D03*
%TD*%
D20*
%TO.P,D19,1,K*%
%TO.N,COL 1*%
X85640000Y-95285000D03*
D21*
%TO.P,D19,2,A*%
%TO.N,Net-(D19-A)*%
X93260000Y-95285000D03*
%TD*%
D20*
%TO.P,D25,1,K*%
%TO.N,COL 1*%
X85640000Y-114335000D03*
D21*
%TO.P,D25,2,A*%
%TO.N,Net-(D25-A)*%
X93260000Y-114335000D03*
%TD*%
D20*
%TO.P,D12,1,K*%
%TO.N,COL 6*%
X180990000Y-57175000D03*
D21*
%TO.P,D12,2,A*%
%TO.N,Net-(D12-A)*%
X188610000Y-57175000D03*
%TD*%
D20*
%TO.P,D1,1,K*%
%TO.N,COL 1*%
X85640000Y-38135000D03*
D21*
%TO.P,D1,2,A*%
%TO.N,Net-(D1-A)*%
X93260000Y-38135000D03*
%TD*%
D20*
%TO.P,D9,1,K*%
%TO.N,COL 3*%
X123840000Y-57185000D03*
D21*
%TO.P,D9,2,A*%
%TO.N,Net-(D9-A)*%
X131460000Y-57185000D03*
%TD*%
D20*
%TO.P,D5,1,K*%
%TO.N,COL 5*%
X161840000Y-38135000D03*
D21*
%TO.P,D5,2,A*%
%TO.N,Net-(D5-A)*%
X169460000Y-38135000D03*
%TD*%
D20*
%TO.P,D26,1,K*%
%TO.N,COL 2*%
X104690000Y-114335000D03*
D21*
%TO.P,D26,2,A*%
%TO.N,Net-(D26-A)*%
X112310000Y-114335000D03*
%TD*%
D20*
%TO.P,D21,1,K*%
%TO.N,COL 3*%
X123840000Y-95285000D03*
D21*
%TO.P,D21,2,A*%
%TO.N,Net-(D21-A)*%
X131460000Y-95285000D03*
%TD*%
D20*
%TO.P,D7,1,K*%
%TO.N,COL 1*%
X85640000Y-57185000D03*
D21*
%TO.P,D7,2,A*%
%TO.N,Net-(D7-A)*%
X93260000Y-57185000D03*
%TD*%
D20*
%TO.P,D24,1,K*%
%TO.N,COL 6*%
X180990000Y-95275000D03*
D21*
%TO.P,D24,2,A*%
%TO.N,Net-(D24-A)*%
X188610000Y-95275000D03*
%TD*%
D20*
%TO.P,D11,1,K*%
%TO.N,COL 5*%
X161940000Y-57185000D03*
D21*
%TO.P,D11,2,A*%
%TO.N,Net-(D11-A)*%
X169560000Y-57185000D03*
%TD*%
D20*
%TO.P,D17,1,K*%
%TO.N,COL 5*%
X161940000Y-76235000D03*
D21*
%TO.P,D17,2,A*%
%TO.N,Net-(D17-A)*%
X169560000Y-76235000D03*
%TD*%
D20*
%TO.P,D13,1,K*%
%TO.N,COL 1*%
X85640000Y-76235000D03*
D21*
%TO.P,D13,2,A*%
%TO.N,Net-(D13-A)*%
X93260000Y-76235000D03*
%TD*%
D20*
%TO.P,D8,1,K*%
%TO.N,COL 2*%
X104690000Y-57185000D03*
D21*
%TO.P,D8,2,A*%
%TO.N,Net-(D8-A)*%
X112310000Y-57185000D03*
%TD*%
D20*
%TO.P,D29,1,K*%
%TO.N,COL 5*%
X161940000Y-114335000D03*
D21*
%TO.P,D29,2,A*%
%TO.N,Net-(D29-A)*%
X169560000Y-114335000D03*
%TD*%
D20*
%TO.P,D3,1,K*%
%TO.N,COL 3*%
X123740000Y-38135000D03*
D21*
%TO.P,D3,2,A*%
%TO.N,Net-(D3-A)*%
X131360000Y-38135000D03*
%TD*%
D20*
%TO.P,D22,1,K*%
%TO.N,COL 4*%
X142790000Y-95285000D03*
D21*
%TO.P,D22,2,A*%
%TO.N,Net-(D22-A)*%
X150410000Y-95285000D03*
%TD*%
D20*
%TO.P,D27,1,K*%
%TO.N,COL 3*%
X123840000Y-114335000D03*
D21*
%TO.P,D27,2,A*%
%TO.N,Net-(D27-A)*%
X131460000Y-114335000D03*
%TD*%
D20*
%TO.P,D2,1,K*%
%TO.N,COL 2*%
X104690000Y-38135000D03*
D21*
%TO.P,D2,2,A*%
%TO.N,Net-(D2-A)*%
X112310000Y-38135000D03*
%TD*%
D20*
%TO.P,D20,1,K*%
%TO.N,COL 2*%
X104690000Y-95285000D03*
D21*
%TO.P,D20,2,A*%
%TO.N,Net-(D20-A)*%
X112310000Y-95285000D03*
%TD*%
D20*
%TO.P,D4,1,K*%
%TO.N,COL 4*%
X142790000Y-38135000D03*
D21*
%TO.P,D4,2,A*%
%TO.N,Net-(D4-A)*%
X150410000Y-38135000D03*
%TD*%
D20*
%TO.P,D23,1,K*%
%TO.N,COL 5*%
X161940000Y-95285000D03*
D21*
%TO.P,D23,2,A*%
%TO.N,Net-(D23-A)*%
X169560000Y-95285000D03*
%TD*%
D20*
%TO.P,D28,1,K*%
%TO.N,COL 4*%
X142790000Y-114335000D03*
D21*
%TO.P,D28,2,A*%
%TO.N,Net-(D28-A)*%
X150410000Y-114335000D03*
%TD*%
D20*
%TO.P,D10,1,K*%
%TO.N,COL 4*%
X142790000Y-57185000D03*
D21*
%TO.P,D10,2,A*%
%TO.N,Net-(D10-A)*%
X150410000Y-57185000D03*
%TD*%
D20*
%TO.P,D16,1,K*%
%TO.N,COL 4*%
X142790000Y-76235000D03*
D21*
%TO.P,D16,2,A*%
%TO.N,Net-(D16-A)*%
X150410000Y-76235000D03*
%TD*%
D22*
%TO.N,COL 6*%
X144550000Y-127550000D03*
%TO.N,ROW 4*%
X129975000Y-130400000D03*
X123950000Y-89800000D03*
%TO.N,ROW 3*%
X133930000Y-70520000D03*
X133450000Y-128700000D03*
%TO.N,ROW 2*%
X142750000Y-52400000D03*
X143890000Y-117250000D03*
%TD*%
D23*
%TO.N,Net-(J2-Pin_4)*%
X147590000Y-169360000D02*
X146030000Y-169360000D01*
X162050000Y-130500000D02*
X162050000Y-154900000D01*
X162050000Y-154900000D02*
X147590000Y-169360000D01*
X161200000Y-129650000D02*
X162050000Y-130500000D01*
X158150000Y-129650000D02*
X161200000Y-129650000D01*
%TO.N,Net-(J2-Pin_1)*%
X141760000Y-119250000D02*
X139680000Y-121330000D01*
X151500000Y-119250000D02*
X141760000Y-119250000D01*
X154400000Y-122150000D02*
X151500000Y-119250000D01*
X158150000Y-122150000D02*
X154400000Y-122150000D01*
%TO.N,Net-(J2-Pin_2)*%
X160550000Y-118300000D02*
X138610000Y-118300000D01*
X138610000Y-118300000D02*
X137140000Y-119770000D01*
X161800000Y-119550000D02*
X160550000Y-118300000D01*
X161300000Y-124650000D02*
X161800000Y-124150000D01*
X161800000Y-124150000D02*
X161800000Y-119550000D01*
X158150000Y-124650000D02*
X161300000Y-124650000D01*
X137140000Y-119770000D02*
X137140000Y-121330000D01*
%TO.N,Net-(J2-Pin_3)*%
X162500000Y-126000000D02*
X162500000Y-119550000D01*
X162500000Y-119550000D02*
X160800000Y-117850000D01*
X161350000Y-127150000D02*
X162500000Y-126000000D01*
X136520000Y-117850000D02*
X134600000Y-119770000D01*
X134600000Y-119770000D02*
X134600000Y-121330000D01*
X158150000Y-127150000D02*
X161350000Y-127150000D01*
X160800000Y-117850000D02*
X136520000Y-117850000D01*
%TO.N,COL 1*%
X85640000Y-76235000D02*
X83220000Y-78655000D01*
X85640000Y-95285000D02*
X83220000Y-97705000D01*
X83220000Y-73815000D02*
X85640000Y-76235000D01*
X83220000Y-97705000D02*
X83220000Y-111915000D01*
X83220000Y-54765000D02*
X85640000Y-57185000D01*
X83220000Y-92865000D02*
X85640000Y-95285000D01*
X83220000Y-59605000D02*
X83220000Y-73815000D01*
X83220000Y-40555000D02*
X83220000Y-54765000D01*
X108072349Y-115435000D02*
X102720534Y-115435000D01*
X87225000Y-112750000D02*
X85640000Y-114335000D01*
X83220000Y-78655000D02*
X83220000Y-92865000D01*
X128250000Y-121100000D02*
X113737349Y-121100000D01*
X85640000Y-57185000D02*
X83220000Y-59605000D01*
X100035534Y-112750000D02*
X87225000Y-112750000D01*
X102720534Y-115435000D02*
X100035534Y-112750000D01*
X113737349Y-121100000D02*
X108072349Y-115435000D01*
X83220000Y-111915000D02*
X85640000Y-114335000D01*
X85640000Y-38135000D02*
X83220000Y-40555000D01*
%TO.N,COL 2*%
X99890000Y-81035000D02*
X99890000Y-90485000D01*
X99890000Y-90485000D02*
X104690000Y-95285000D01*
X102270000Y-97705000D02*
X102270000Y-111915000D01*
X129400000Y-122490000D02*
X129400000Y-120050000D01*
X100440000Y-52935000D02*
X104690000Y-57185000D01*
X102270000Y-59605000D02*
X102270000Y-73815000D01*
X127100000Y-117750000D02*
X110953035Y-117750000D01*
X128250000Y-123640000D02*
X129400000Y-122490000D01*
X104690000Y-57185000D02*
X102270000Y-59605000D01*
X110953035Y-117750000D02*
X107538035Y-114335000D01*
X104690000Y-38135000D02*
X100440000Y-42385000D01*
X102270000Y-111915000D02*
X104690000Y-114335000D01*
X107538035Y-114335000D02*
X104690000Y-114335000D01*
X129400000Y-120050000D02*
X127100000Y-117750000D01*
X100440000Y-42385000D02*
X100440000Y-52935000D01*
X102270000Y-73815000D02*
X104690000Y-76235000D01*
X104690000Y-95285000D02*
X102270000Y-97705000D01*
X104690000Y-76235000D02*
X99890000Y-81035000D01*
%TO.N,COL 3*%
X121320000Y-54665000D02*
X123840000Y-57185000D01*
X123740000Y-38135000D02*
X121320000Y-40555000D01*
X120890000Y-92335000D02*
X123840000Y-95285000D01*
X121290000Y-59735000D02*
X121290000Y-73685000D01*
X123840000Y-95285000D02*
X121320000Y-97805000D01*
X121320000Y-40555000D02*
X121320000Y-54665000D01*
X123840000Y-57185000D02*
X121290000Y-59735000D01*
X120890000Y-79185000D02*
X120890000Y-92335000D01*
X121320000Y-111815000D02*
X123840000Y-114335000D01*
X123840000Y-76235000D02*
X120890000Y-79185000D01*
X121320000Y-97805000D02*
X121320000Y-111815000D01*
X121290000Y-73685000D02*
X123840000Y-76235000D01*
%TO.N,COL 4*%
X140370000Y-111915000D02*
X142790000Y-114335000D01*
X140370000Y-97705000D02*
X140370000Y-111915000D01*
X142790000Y-95285000D02*
X140370000Y-97705000D01*
X140370000Y-92865000D02*
X142790000Y-95285000D01*
X142790000Y-76235000D02*
X140370000Y-78655000D01*
X140370000Y-78655000D02*
X140370000Y-92865000D01*
X140370000Y-54765000D02*
X142790000Y-57185000D01*
X142790000Y-57185000D02*
X140370000Y-59605000D01*
X140370000Y-73815000D02*
X142790000Y-76235000D01*
X142790000Y-38135000D02*
X140370000Y-40555000D01*
X140370000Y-59605000D02*
X140370000Y-73815000D01*
X140370000Y-40555000D02*
X140370000Y-54765000D01*
%TO.N,COL 5*%
X158140000Y-91485000D02*
X161940000Y-95285000D01*
X158140000Y-80035000D02*
X158140000Y-91485000D01*
X159420000Y-111815000D02*
X161940000Y-114335000D01*
X159420000Y-54665000D02*
X161940000Y-57185000D01*
X159420000Y-59705000D02*
X159420000Y-73715000D01*
X159420000Y-73715000D02*
X161940000Y-76235000D01*
X161940000Y-76235000D02*
X158140000Y-80035000D01*
X159420000Y-40555000D02*
X159420000Y-54665000D01*
X161940000Y-95285000D02*
X159420000Y-97805000D01*
X159420000Y-97805000D02*
X159420000Y-111815000D01*
X161840000Y-38135000D02*
X159420000Y-40555000D01*
X161940000Y-57185000D02*
X159420000Y-59705000D01*
%TO.N,COL 6*%
X138300000Y-133800000D02*
X128250000Y-133800000D01*
X178470000Y-92755000D02*
X180990000Y-95275000D01*
X178470000Y-54655000D02*
X180990000Y-57175000D01*
X144550000Y-127550000D02*
X138300000Y-133800000D01*
X180990000Y-95275000D02*
X180990000Y-107445635D01*
X172550000Y-115885635D02*
X172550000Y-121950000D01*
X180990000Y-57175000D02*
X178470000Y-59695000D01*
X178470000Y-59695000D02*
X178470000Y-73705000D01*
X178470000Y-78745000D02*
X178470000Y-92755000D01*
X180890000Y-38135000D02*
X178470000Y-40555000D01*
X180990000Y-76225000D02*
X178470000Y-78745000D01*
X178470000Y-73705000D02*
X180990000Y-76225000D01*
X180990000Y-107445635D02*
X172550000Y-115885635D01*
X178470000Y-40555000D02*
X178470000Y-54655000D01*
%TO.N,Net-(J1-Pin_1)*%
X115900000Y-156030000D02*
X126690000Y-166820000D01*
X115900000Y-124850000D02*
X115900000Y-156030000D01*
X126690000Y-166820000D02*
X128250000Y-166820000D01*
%TO.N,Net-(J1-Pin_2)*%
X126690000Y-164280000D02*
X128250000Y-164280000D01*
X118400000Y-124850000D02*
X118400000Y-155990000D01*
X118400000Y-155990000D02*
X126690000Y-164280000D01*
%TO.N,ROW 4*%
X129975000Y-104751598D02*
X129975000Y-130400000D01*
X125690000Y-100466598D02*
X125690000Y-91540000D01*
X129975000Y-104751598D02*
X125690000Y-100466598D01*
X125690000Y-91540000D02*
X123950000Y-89800000D01*
%TO.N,ROW 3*%
X133450000Y-118380000D02*
X133930000Y-117900000D01*
X133930000Y-117900000D02*
X133930000Y-70520000D01*
X133450000Y-128550000D02*
X133450000Y-118380000D01*
%TO.N,ROW 2*%
X144740000Y-65861650D02*
X144740000Y-54390000D01*
X144300000Y-71680635D02*
X144300000Y-66301650D01*
X150330825Y-83130825D02*
X151090000Y-82371650D01*
X151510000Y-88810000D02*
X150330825Y-87630825D01*
X143890000Y-111833402D02*
X151510000Y-104213402D01*
X151510000Y-104213402D02*
X151510000Y-88810000D01*
X144740000Y-54390000D02*
X142750000Y-52400000D01*
X151090000Y-82371650D02*
X151090000Y-78470635D01*
X151090000Y-78470635D02*
X144300000Y-71680635D01*
X143890000Y-117250000D02*
X143890000Y-111833402D01*
X150330825Y-87630825D02*
X150330825Y-83130825D01*
X144300000Y-66301650D02*
X144740000Y-65861650D01*
%TO.N,Net-(J2-Pin_5)*%
X147590000Y-166820000D02*
X146030000Y-166820000D01*
X158150000Y-132150000D02*
X158150000Y-156260000D01*
X158150000Y-156260000D02*
X147590000Y-166820000D01*
%TD*%
M02*
