%TF.GenerationSoftware,KiCad,Pcbnew,8.0.6*%
%TF.CreationDate,2025-03-28T01:06:29-04:00*%
%TF.ProjectId,Keypad AIO,4b657970-6164-4204-9149-4f2e6b696361,rev?*%
%TF.SameCoordinates,Original*%
%TF.FileFunction,Copper,L2,Bot*%
%TF.FilePolarity,Positive*%
%FSLAX46Y46*%
G04 Gerber Fmt 4.6, Leading zero omitted, Abs format (unit mm)*
G04 Created by KiCad (PCBNEW 8.0.6) date 2025-03-28 01:06:29*
%MOMM*%
%LPD*%
G01*
G04 APERTURE LIST*
G04 Aperture macros list*
%AMRoundRect*
0 Rectangle with rounded corners*
0 $1 Rounding radius*
0 $2 $3 $4 $5 $6 $7 $8 $9 X,Y pos of 4 corners*
0 Add a 4 corners polygon primitive as box body*
4,1,4,$2,$3,$4,$5,$6,$7,$8,$9,$2,$3,0*
0 Add four circle primitives for the rounded corners*
1,1,$1+$1,$2,$3*
1,1,$1+$1,$4,$5*
1,1,$1+$1,$6,$7*
1,1,$1+$1,$8,$9*
0 Add four rect primitives between the rounded corners*
20,1,$1+$1,$2,$3,$4,$5,0*
20,1,$1+$1,$4,$5,$6,$7,0*
20,1,$1+$1,$6,$7,$8,$9,0*
20,1,$1+$1,$8,$9,$2,$3,0*%
G04 Aperture macros list end*
%TA.AperFunction,ComponentPad*%
%ADD10C,0.700000*%
%TD*%
%TA.AperFunction,ComponentPad*%
%ADD11C,4.400000*%
%TD*%
%TA.AperFunction,ComponentPad*%
%ADD12O,1.700000X1.700000*%
%TD*%
%TA.AperFunction,ComponentPad*%
%ADD13R,1.700000X1.700000*%
%TD*%
%TA.AperFunction,ComponentPad*%
%ADD14RoundRect,0.250000X-0.725000X0.600000X-0.725000X-0.600000X0.725000X-0.600000X0.725000X0.600000X0*%
%TD*%
%TA.AperFunction,ComponentPad*%
%ADD15O,1.950000X1.700000*%
%TD*%
%TA.AperFunction,ComponentPad*%
%ADD16RoundRect,0.250000X-0.600000X-0.750000X0.600000X-0.750000X0.600000X0.750000X-0.600000X0.750000X0*%
%TD*%
%TA.AperFunction,ComponentPad*%
%ADD17O,1.700000X2.000000*%
%TD*%
%TA.AperFunction,ComponentPad*%
%ADD18R,1.600000X1.600000*%
%TD*%
%TA.AperFunction,ComponentPad*%
%ADD19O,1.600000X1.600000*%
%TD*%
%TA.AperFunction,SMDPad,CuDef*%
%ADD20RoundRect,0.250000X-1.025000X-1.000000X1.025000X-1.000000X1.025000X1.000000X-1.025000X1.000000X0*%
%TD*%
%TA.AperFunction,ViaPad*%
%ADD21C,0.600000*%
%TD*%
%TA.AperFunction,Conductor*%
%ADD22C,0.200000*%
%TD*%
G04 APERTURE END LIST*
D10*
%TO.P,,1*%
%TO.N,N/C*%
X97350000Y-58100000D03*
X97833274Y-56933274D03*
X97833274Y-59266726D03*
X99000000Y-56450000D03*
D11*
X99000000Y-58100000D03*
D10*
X99000000Y-59750000D03*
X100166726Y-56933274D03*
X100166726Y-59266726D03*
X100650000Y-58100000D03*
%TD*%
%TO.P,,1*%
%TO.N,N/C*%
X173450000Y-19900000D03*
X173933274Y-18733274D03*
X173933274Y-21066726D03*
X175100000Y-18250000D03*
D11*
X175100000Y-19900000D03*
D10*
X175100000Y-21550000D03*
X176266726Y-18733274D03*
X176266726Y-21066726D03*
X176750000Y-19900000D03*
%TD*%
%TO.P,,1*%
%TO.N,N/C*%
X116400000Y-19950000D03*
X116883274Y-18783274D03*
X116883274Y-21116726D03*
X118050000Y-18300000D03*
D11*
X118050000Y-19950000D03*
D10*
X118050000Y-21600000D03*
X119216726Y-18783274D03*
X119216726Y-21116726D03*
X119700000Y-19950000D03*
%TD*%
%TO.P,,1*%
%TO.N,N/C*%
X135400000Y-19950000D03*
X135883274Y-18783274D03*
X135883274Y-21116726D03*
X137050000Y-18300000D03*
D11*
X137050000Y-19950000D03*
D10*
X137050000Y-21600000D03*
X138216726Y-18783274D03*
X138216726Y-21116726D03*
X138700000Y-19950000D03*
%TD*%
%TO.P,,1*%
%TO.N,N/C*%
X154400000Y-115200000D03*
X154883274Y-114033274D03*
X154883274Y-116366726D03*
X156050000Y-113550000D03*
D11*
X156050000Y-115200000D03*
D10*
X156050000Y-116850000D03*
X157216726Y-114033274D03*
X157216726Y-116366726D03*
X157700000Y-115200000D03*
%TD*%
D12*
%TO.P,U1,1,GPIO0*%
%TO.N,Net-(J2-Pin_4)*%
X146030000Y-169360000D03*
%TO.P,U1,2,GPIO1*%
%TO.N,Net-(J2-Pin_5)*%
X146030000Y-166820000D03*
D13*
%TO.P,U1,3,GND*%
%TO.N,unconnected-(U1-GND-Pad3)*%
X146030000Y-164280000D03*
D12*
%TO.P,U1,4,GPIO2*%
%TO.N,unconnected-(U1-GPIO2-Pad4)*%
X146030000Y-161740000D03*
%TO.P,U1,5,GPIO3*%
%TO.N,unconnected-(U1-GPIO3-Pad5)*%
X146030000Y-159200000D03*
%TO.P,U1,6,GPIO4*%
%TO.N,unconnected-(U1-GPIO4-Pad6)*%
X146030000Y-156660000D03*
%TO.P,U1,7,GPIO5*%
%TO.N,unconnected-(U1-GPIO5-Pad7)*%
X146030000Y-154120000D03*
D13*
%TO.P,U1,8,GND*%
%TO.N,unconnected-(U1-GND-Pad8)*%
X146030000Y-151580000D03*
D12*
%TO.P,U1,9,GPIO6*%
%TO.N,unconnected-(U1-GPIO6-Pad9)*%
X146030000Y-149040000D03*
%TO.P,U1,10,GPIO7*%
%TO.N,unconnected-(U1-GPIO7-Pad10)*%
X146030000Y-146500000D03*
%TO.P,U1,11,GPIO8*%
%TO.N,unconnected-(U1-GPIO8-Pad11)*%
X146030000Y-143960000D03*
%TO.P,U1,12,GPIO9*%
%TO.N,unconnected-(U1-GPIO9-Pad12)*%
X146030000Y-141420000D03*
D13*
%TO.P,U1,13,GND*%
%TO.N,unconnected-(U1-GND-Pad13)*%
X146030000Y-138880000D03*
D12*
%TO.P,U1,14,GPIO10*%
%TO.N,unconnected-(U1-GPIO10-Pad14)*%
X146030000Y-136340000D03*
%TO.P,U1,15,GPIO11*%
%TO.N,unconnected-(U1-GPIO11-Pad15)*%
X146030000Y-133800000D03*
%TO.P,U1,16,GPIO12*%
%TO.N,unconnected-(U1-GPIO12-Pad16)*%
X146030000Y-131260000D03*
%TO.P,U1,17,GPIO13*%
%TO.N,unconnected-(U1-GPIO13-Pad17)*%
X146030000Y-128720000D03*
D13*
%TO.P,U1,18,GND*%
%TO.N,unconnected-(U1-GND-Pad18)*%
X146030000Y-126180000D03*
D12*
%TO.P,U1,19,GPIO14*%
%TO.N,unconnected-(U1-GPIO14-Pad19)*%
X146030000Y-123640000D03*
%TO.P,U1,20,GPIO15*%
%TO.N,unconnected-(U1-GPIO15-Pad20)*%
X146030000Y-121100000D03*
%TO.P,U1,21,GPIO16*%
%TO.N,COL 1*%
X128250000Y-121100000D03*
%TO.P,U1,22,GPIO17*%
%TO.N,COL 2*%
X128250000Y-123640000D03*
D13*
%TO.P,U1,23,GND*%
%TO.N,COL 3*%
X128250000Y-126180000D03*
D12*
%TO.P,U1,24,GPIO18*%
%TO.N,COL 4*%
X128250000Y-128720000D03*
%TO.P,U1,25,GPIO19*%
%TO.N,COL 5*%
X128250000Y-131260000D03*
%TO.P,U1,26,GPIO20*%
%TO.N,COL 6*%
X128250000Y-133800000D03*
%TO.P,U1,27,GPIO21*%
%TO.N,ROW 5*%
X128250000Y-136340000D03*
D13*
%TO.P,U1,28,GND*%
%TO.N,unconnected-(U1-GND-Pad28)*%
X128250000Y-138880000D03*
D12*
%TO.P,U1,29,GPIO22*%
%TO.N,ROW 4*%
X128250000Y-141420000D03*
%TO.P,U1,30,RUN*%
%TO.N,unconnected-(U1-RUN-Pad30)*%
X128250000Y-143960000D03*
%TO.P,U1,31,GPIO26_ADC0*%
%TO.N,ROW 3*%
X128250000Y-146500000D03*
%TO.P,U1,32,GPIO27_ADC1*%
%TO.N,ROW 2*%
X128250000Y-149040000D03*
D13*
%TO.P,U1,33,AGND*%
%TO.N,unconnected-(U1-AGND-Pad33)*%
X128250000Y-151580000D03*
D12*
%TO.P,U1,34,GPIO28_ADC2*%
%TO.N,ROW 1*%
X128250000Y-154120000D03*
%TO.P,U1,35,ADC_VREF*%
%TO.N,unconnected-(U1-ADC_VREF-Pad35)*%
X128250000Y-156660000D03*
%TO.P,U1,36,3V3*%
%TO.N,unconnected-(U1-3V3-Pad36)*%
X128250000Y-159200000D03*
%TO.P,U1,37,3V3_EN*%
%TO.N,unconnected-(U1-3V3_EN-Pad37)*%
X128250000Y-161740000D03*
D13*
%TO.P,U1,38,GND*%
%TO.N,Net-(J1-Pin_2)*%
X128250000Y-164280000D03*
D12*
%TO.P,U1,39,VSYS*%
%TO.N,Net-(J1-Pin_1)*%
X128250000Y-166820000D03*
%TO.P,U1,40,VBUS*%
%TO.N,unconnected-(U1-VBUS-Pad40)*%
X128250000Y-169360000D03*
%TO.P,U1,41,SWCLK*%
%TO.N,Net-(J2-Pin_1)*%
X139680000Y-121330000D03*
D13*
%TO.P,U1,42,GND*%
%TO.N,Net-(J2-Pin_2)*%
X137140000Y-121330000D03*
D12*
%TO.P,U1,43,SWDIO*%
%TO.N,Net-(J2-Pin_3)*%
X134600000Y-121330000D03*
%TD*%
D10*
%TO.P,,1*%
%TO.N,N/C*%
X97250000Y-96150000D03*
X97733274Y-94983274D03*
X97733274Y-97316726D03*
X98900000Y-94500000D03*
D11*
X98900000Y-96150000D03*
D10*
X98900000Y-97800000D03*
X100066726Y-94983274D03*
X100066726Y-97316726D03*
X100550000Y-96150000D03*
%TD*%
%TO.P,,1*%
%TO.N,N/C*%
X173550000Y-58100000D03*
X174033274Y-56933274D03*
X174033274Y-59266726D03*
X175200000Y-56450000D03*
D11*
X175200000Y-58100000D03*
D10*
X175200000Y-59750000D03*
X176366726Y-56933274D03*
X176366726Y-59266726D03*
X176850000Y-58100000D03*
%TD*%
%TO.P,,1*%
%TO.N,N/C*%
X116400000Y-58100000D03*
X116883274Y-56933274D03*
X116883274Y-59266726D03*
X118050000Y-56450000D03*
D11*
X118050000Y-58100000D03*
D10*
X118050000Y-59750000D03*
X119216726Y-56933274D03*
X119216726Y-59266726D03*
X119700000Y-58100000D03*
%TD*%
%TO.P,,1*%
%TO.N,N/C*%
X173583274Y-133200000D03*
X174066548Y-132033274D03*
X174066548Y-134366726D03*
X175233274Y-131550000D03*
D11*
X175233274Y-133200000D03*
D10*
X175233274Y-134850000D03*
X176400000Y-132033274D03*
X176400000Y-134366726D03*
X176883274Y-133200000D03*
%TD*%
%TO.P,,1*%
%TO.N,N/C*%
X78350000Y-58100000D03*
X78833274Y-56933274D03*
X78833274Y-59266726D03*
X80000000Y-56450000D03*
D11*
X80000000Y-58100000D03*
D10*
X80000000Y-59750000D03*
X81166726Y-56933274D03*
X81166726Y-59266726D03*
X81650000Y-58100000D03*
%TD*%
%TO.P,,1*%
%TO.N,N/C*%
X135450000Y-39050000D03*
X135933274Y-37883274D03*
X135933274Y-40216726D03*
X137100000Y-37400000D03*
D11*
X137100000Y-39050000D03*
D10*
X137100000Y-40700000D03*
X138266726Y-37883274D03*
X138266726Y-40216726D03*
X138750000Y-39050000D03*
%TD*%
%TO.P,,1*%
%TO.N,N/C*%
X173500000Y-77100000D03*
X173983274Y-75933274D03*
X173983274Y-78266726D03*
X175150000Y-75450000D03*
D11*
X175150000Y-77100000D03*
D10*
X175150000Y-78750000D03*
X176316726Y-75933274D03*
X176316726Y-78266726D03*
X176800000Y-77100000D03*
%TD*%
%TO.P,,1*%
%TO.N,N/C*%
X116450000Y-77150000D03*
X116933274Y-75983274D03*
X116933274Y-78316726D03*
X118100000Y-75500000D03*
D11*
X118100000Y-77150000D03*
D10*
X118100000Y-78800000D03*
X119266726Y-75983274D03*
X119266726Y-78316726D03*
X119750000Y-77150000D03*
%TD*%
%TO.P,,1*%
%TO.N,N/C*%
X154500000Y-77100000D03*
X154983274Y-75933274D03*
X154983274Y-78266726D03*
X156150000Y-75450000D03*
D11*
X156150000Y-77100000D03*
D10*
X156150000Y-78750000D03*
X157316726Y-75933274D03*
X157316726Y-78266726D03*
X157800000Y-77100000D03*
%TD*%
%TO.P,,1*%
%TO.N,N/C*%
X97300000Y-39050000D03*
X97783274Y-37883274D03*
X97783274Y-40216726D03*
X98950000Y-37400000D03*
D11*
X98950000Y-39050000D03*
D10*
X98950000Y-40700000D03*
X100116726Y-37883274D03*
X100116726Y-40216726D03*
X100600000Y-39050000D03*
%TD*%
%TO.P,,1*%
%TO.N,N/C*%
X135450000Y-77150000D03*
X135933274Y-75983274D03*
X135933274Y-78316726D03*
X137100000Y-75500000D03*
D11*
X137100000Y-77150000D03*
D10*
X137100000Y-78800000D03*
X138266726Y-75983274D03*
X138266726Y-78316726D03*
X138750000Y-77150000D03*
%TD*%
%TO.P,,1*%
%TO.N,N/C*%
X97350000Y-115250000D03*
X97833274Y-114083274D03*
X97833274Y-116416726D03*
X99000000Y-113600000D03*
D11*
X99000000Y-115250000D03*
D10*
X99000000Y-116900000D03*
X100166726Y-114083274D03*
X100166726Y-116416726D03*
X100650000Y-115250000D03*
%TD*%
%TO.P,,1*%
%TO.N,N/C*%
X173550000Y-96200000D03*
X174033274Y-95033274D03*
X174033274Y-97366726D03*
X175200000Y-94550000D03*
D11*
X175200000Y-96200000D03*
D10*
X175200000Y-97850000D03*
X176366726Y-95033274D03*
X176366726Y-97366726D03*
X176850000Y-96200000D03*
%TD*%
%TO.P,,1*%
%TO.N,N/C*%
X192650000Y-77150000D03*
X193133274Y-75983274D03*
X193133274Y-78316726D03*
X194300000Y-75500000D03*
D11*
X194300000Y-77150000D03*
D10*
X194300000Y-78800000D03*
X195466726Y-75983274D03*
X195466726Y-78316726D03*
X195950000Y-77150000D03*
%TD*%
%TO.P,,1*%
%TO.N,N/C*%
X154500000Y-39000000D03*
X154983274Y-37833274D03*
X154983274Y-40166726D03*
X156150000Y-37350000D03*
D11*
X156150000Y-39000000D03*
D10*
X156150000Y-40650000D03*
X157316726Y-37833274D03*
X157316726Y-40166726D03*
X157800000Y-39000000D03*
%TD*%
%TO.P,,1*%
%TO.N,N/C*%
X135400000Y-115250000D03*
X135883274Y-114083274D03*
X135883274Y-116416726D03*
X137050000Y-113600000D03*
D11*
X137050000Y-115250000D03*
D10*
X137050000Y-116900000D03*
X138216726Y-114083274D03*
X138216726Y-116416726D03*
X138700000Y-115250000D03*
%TD*%
%TO.P,,1*%
%TO.N,N/C*%
X135400000Y-58100000D03*
X135883274Y-56933274D03*
X135883274Y-59266726D03*
X137050000Y-56450000D03*
D11*
X137050000Y-58100000D03*
D10*
X137050000Y-59750000D03*
X138216726Y-56933274D03*
X138216726Y-59266726D03*
X138700000Y-58100000D03*
%TD*%
%TO.P,,1*%
%TO.N,N/C*%
X78300000Y-39050000D03*
X78783274Y-37883274D03*
X78783274Y-40216726D03*
X79950000Y-37400000D03*
D11*
X79950000Y-39050000D03*
D10*
X79950000Y-40700000D03*
X81116726Y-37883274D03*
X81116726Y-40216726D03*
X81600000Y-39050000D03*
%TD*%
D14*
%TO.P,J2,1,Pin_1*%
%TO.N,Net-(J2-Pin_1)*%
X158150000Y-122150000D03*
D15*
%TO.P,J2,2,Pin_2*%
%TO.N,Net-(J2-Pin_2)*%
X158150000Y-124650000D03*
%TO.P,J2,3,Pin_3*%
%TO.N,Net-(J2-Pin_3)*%
X158150000Y-127150000D03*
%TO.P,J2,4,Pin_4*%
%TO.N,Net-(J2-Pin_4)*%
X158150000Y-129650000D03*
%TO.P,J2,5,Pin_5*%
%TO.N,Net-(J2-Pin_5)*%
X158150000Y-132150000D03*
%TD*%
D10*
%TO.P,,1*%
%TO.N,N/C*%
X192650000Y-20000000D03*
X193133274Y-18833274D03*
X193133274Y-21166726D03*
X194300000Y-18350000D03*
D11*
X194300000Y-20000000D03*
D10*
X194300000Y-21650000D03*
X195466726Y-18833274D03*
X195466726Y-21166726D03*
X195950000Y-20000000D03*
%TD*%
%TO.P,,1*%
%TO.N,N/C*%
X78350000Y-20000000D03*
X78833274Y-18833274D03*
X78833274Y-21166726D03*
X80000000Y-18350000D03*
D11*
X80000000Y-20000000D03*
D10*
X80000000Y-21650000D03*
X81166726Y-18833274D03*
X81166726Y-21166726D03*
X81650000Y-20000000D03*
%TD*%
%TO.P,,1*%
%TO.N,N/C*%
X116400000Y-115250000D03*
X116883274Y-114083274D03*
X116883274Y-116416726D03*
X118050000Y-113600000D03*
D11*
X118050000Y-115250000D03*
D10*
X118050000Y-116900000D03*
X119216726Y-114083274D03*
X119216726Y-116416726D03*
X119700000Y-115250000D03*
%TD*%
%TO.P,,1*%
%TO.N,N/C*%
X116450000Y-39050000D03*
X116933274Y-37883274D03*
X116933274Y-40216726D03*
X118100000Y-37400000D03*
D11*
X118100000Y-39050000D03*
D10*
X118100000Y-40700000D03*
X119266726Y-37883274D03*
X119266726Y-40216726D03*
X119750000Y-39050000D03*
%TD*%
%TO.P,,1*%
%TO.N,N/C*%
X192600000Y-96200000D03*
X193083274Y-95033274D03*
X193083274Y-97366726D03*
X194250000Y-94550000D03*
D11*
X194250000Y-96200000D03*
D10*
X194250000Y-97850000D03*
X195416726Y-95033274D03*
X195416726Y-97366726D03*
X195900000Y-96200000D03*
%TD*%
%TO.P,,1*%
%TO.N,N/C*%
X135400000Y-96200000D03*
X135883274Y-95033274D03*
X135883274Y-97366726D03*
X137050000Y-94550000D03*
D11*
X137050000Y-96200000D03*
D10*
X137050000Y-97850000D03*
X138216726Y-95033274D03*
X138216726Y-97366726D03*
X138700000Y-96200000D03*
%TD*%
%TO.P,,1*%
%TO.N,N/C*%
X154550000Y-58100000D03*
X155033274Y-56933274D03*
X155033274Y-59266726D03*
X156200000Y-56450000D03*
D11*
X156200000Y-58100000D03*
D10*
X156200000Y-59750000D03*
X157366726Y-56933274D03*
X157366726Y-59266726D03*
X157850000Y-58100000D03*
%TD*%
%TO.P,,1*%
%TO.N,N/C*%
X192600000Y-39050000D03*
X193083274Y-37883274D03*
X193083274Y-40216726D03*
X194250000Y-37400000D03*
D11*
X194250000Y-39050000D03*
D10*
X194250000Y-40700000D03*
X195416726Y-37883274D03*
X195416726Y-40216726D03*
X195900000Y-39050000D03*
%TD*%
%TO.P,,1*%
%TO.N,N/C*%
X154550000Y-96200000D03*
X155033274Y-95033274D03*
X155033274Y-97366726D03*
X156200000Y-94550000D03*
D11*
X156200000Y-96200000D03*
D10*
X156200000Y-97850000D03*
X157366726Y-95033274D03*
X157366726Y-97366726D03*
X157850000Y-96200000D03*
%TD*%
%TO.P,,1*%
%TO.N,N/C*%
X116400000Y-96200000D03*
X116883274Y-95033274D03*
X116883274Y-97366726D03*
X118050000Y-94550000D03*
D11*
X118050000Y-96200000D03*
D10*
X118050000Y-97850000D03*
X119216726Y-95033274D03*
X119216726Y-97366726D03*
X119700000Y-96200000D03*
%TD*%
%TO.P,,1*%
%TO.N,N/C*%
X97300000Y-77150000D03*
X97783274Y-75983274D03*
X97783274Y-78316726D03*
X98950000Y-75500000D03*
D11*
X98950000Y-77150000D03*
D10*
X98950000Y-78800000D03*
X100116726Y-75983274D03*
X100116726Y-78316726D03*
X100600000Y-77150000D03*
%TD*%
D16*
%TO.P,J1,1,Pin_1*%
%TO.N,Net-(J1-Pin_1)*%
X115900000Y-124850000D03*
D17*
%TO.P,J1,2,Pin_2*%
%TO.N,Net-(J1-Pin_2)*%
X118400000Y-124850000D03*
%TD*%
D10*
%TO.P,,1*%
%TO.N,N/C*%
X78300000Y-77150000D03*
X78783274Y-75983274D03*
X78783274Y-78316726D03*
X79950000Y-75500000D03*
D11*
X79950000Y-77150000D03*
D10*
X79950000Y-78800000D03*
X81116726Y-75983274D03*
X81116726Y-78316726D03*
X81600000Y-77150000D03*
%TD*%
%TO.P,,1*%
%TO.N,N/C*%
X97350000Y-20000000D03*
X97833274Y-18833274D03*
X97833274Y-21166726D03*
X99000000Y-18350000D03*
D11*
X99000000Y-20000000D03*
D10*
X99000000Y-21650000D03*
X100166726Y-18833274D03*
X100166726Y-21166726D03*
X100650000Y-20000000D03*
%TD*%
%TO.P,,1*%
%TO.N,N/C*%
X78250000Y-96150000D03*
X78733274Y-94983274D03*
X78733274Y-97316726D03*
X79900000Y-94500000D03*
D11*
X79900000Y-96150000D03*
D10*
X79900000Y-97800000D03*
X81066726Y-94983274D03*
X81066726Y-97316726D03*
X81550000Y-96150000D03*
%TD*%
%TO.P,,1*%
%TO.N,N/C*%
X192550000Y-58100000D03*
X193033274Y-56933274D03*
X193033274Y-59266726D03*
X194200000Y-56450000D03*
D11*
X194200000Y-58100000D03*
D10*
X194200000Y-59750000D03*
X195366726Y-56933274D03*
X195366726Y-59266726D03*
X195850000Y-58100000D03*
%TD*%
%TO.P,,1*%
%TO.N,N/C*%
X192650000Y-133200000D03*
X193133274Y-132033274D03*
X193133274Y-134366726D03*
X194300000Y-131550000D03*
D11*
X194300000Y-133200000D03*
D10*
X194300000Y-134850000D03*
X195466726Y-132033274D03*
X195466726Y-134366726D03*
X195950000Y-133200000D03*
%TD*%
%TO.P,,1*%
%TO.N,N/C*%
X154450000Y-19900000D03*
X154933274Y-18733274D03*
X154933274Y-21066726D03*
X156100000Y-18250000D03*
D11*
X156100000Y-19900000D03*
D10*
X156100000Y-21550000D03*
X157266726Y-18733274D03*
X157266726Y-21066726D03*
X157750000Y-19900000D03*
%TD*%
%TO.P,,1*%
%TO.N,N/C*%
X111850000Y-168850000D03*
X112333274Y-167683274D03*
X112333274Y-170016726D03*
X113500000Y-167200000D03*
D11*
X113500000Y-168850000D03*
D10*
X113500000Y-170500000D03*
X114666726Y-167683274D03*
X114666726Y-170016726D03*
X115150000Y-168850000D03*
%TD*%
%TO.P,,1*%
%TO.N,N/C*%
X173500000Y-39000000D03*
X173983274Y-37833274D03*
X173983274Y-40166726D03*
X175150000Y-37350000D03*
D11*
X175150000Y-39000000D03*
D10*
X175150000Y-40650000D03*
X176316726Y-37833274D03*
X176316726Y-40166726D03*
X176800000Y-39000000D03*
%TD*%
%TO.P,,1*%
%TO.N,N/C*%
X78350000Y-115250000D03*
X78833274Y-114083274D03*
X78833274Y-116416726D03*
X80000000Y-113600000D03*
D11*
X80000000Y-115250000D03*
D10*
X80000000Y-116900000D03*
X81166726Y-114083274D03*
X81166726Y-116416726D03*
X81650000Y-115250000D03*
%TD*%
%TO.P,,1*%
%TO.N,N/C*%
X159150000Y-168850000D03*
X159633274Y-167683274D03*
X159633274Y-170016726D03*
X160800000Y-167200000D03*
D11*
X160800000Y-168850000D03*
D10*
X160800000Y-170500000D03*
X161966726Y-167683274D03*
X161966726Y-170016726D03*
X162450000Y-168850000D03*
%TD*%
D18*
%TO.P,D18,1,K*%
%TO.N,COL 6*%
X180990000Y-76225000D03*
D19*
%TO.P,D18,2,A*%
%TO.N,Net-(D18-A)*%
X188610000Y-76225000D03*
%TD*%
D18*
%TO.P,D14,1,K*%
%TO.N,COL 2*%
X104690000Y-76235000D03*
D19*
%TO.P,D14,2,A*%
%TO.N,Net-(D14-A)*%
X112310000Y-76235000D03*
%TD*%
D18*
%TO.P,D30,1,K*%
%TO.N,COL 6*%
X172550000Y-121950000D03*
D19*
%TO.P,D30,2,A*%
%TO.N,Net-(D30-A)*%
X172550000Y-114330000D03*
%TD*%
D18*
%TO.P,D6,1,K*%
%TO.N,COL 6*%
X180890000Y-38135000D03*
D19*
%TO.P,D6,2,A*%
%TO.N,Net-(D6-A)*%
X188510000Y-38135000D03*
%TD*%
D18*
%TO.P,D15,1,K*%
%TO.N,COL 3*%
X123840000Y-76235000D03*
D19*
%TO.P,D15,2,A*%
%TO.N,Net-(D15-A)*%
X131460000Y-76235000D03*
%TD*%
D18*
%TO.P,D19,1,K*%
%TO.N,COL 1*%
X85640000Y-95285000D03*
D19*
%TO.P,D19,2,A*%
%TO.N,Net-(D19-A)*%
X93260000Y-95285000D03*
%TD*%
D18*
%TO.P,D25,1,K*%
%TO.N,COL 1*%
X85640000Y-114335000D03*
D19*
%TO.P,D25,2,A*%
%TO.N,Net-(D25-A)*%
X93260000Y-114335000D03*
%TD*%
D18*
%TO.P,D12,1,K*%
%TO.N,COL 6*%
X180990000Y-57175000D03*
D19*
%TO.P,D12,2,A*%
%TO.N,Net-(D12-A)*%
X188610000Y-57175000D03*
%TD*%
D18*
%TO.P,D1,1,K*%
%TO.N,COL 1*%
X85640000Y-38135000D03*
D19*
%TO.P,D1,2,A*%
%TO.N,Net-(D1-A)*%
X93260000Y-38135000D03*
%TD*%
D18*
%TO.P,D9,1,K*%
%TO.N,COL 3*%
X123840000Y-57185000D03*
D19*
%TO.P,D9,2,A*%
%TO.N,Net-(D9-A)*%
X131460000Y-57185000D03*
%TD*%
D18*
%TO.P,D5,1,K*%
%TO.N,COL 5*%
X161840000Y-38135000D03*
D19*
%TO.P,D5,2,A*%
%TO.N,Net-(D5-A)*%
X169460000Y-38135000D03*
%TD*%
D18*
%TO.P,D26,1,K*%
%TO.N,COL 2*%
X104690000Y-114335000D03*
D19*
%TO.P,D26,2,A*%
%TO.N,Net-(D26-A)*%
X112310000Y-114335000D03*
%TD*%
D18*
%TO.P,D21,1,K*%
%TO.N,COL 3*%
X123840000Y-95285000D03*
D19*
%TO.P,D21,2,A*%
%TO.N,Net-(D21-A)*%
X131460000Y-95285000D03*
%TD*%
D18*
%TO.P,D7,1,K*%
%TO.N,COL 1*%
X85640000Y-57185000D03*
D19*
%TO.P,D7,2,A*%
%TO.N,Net-(D7-A)*%
X93260000Y-57185000D03*
%TD*%
D18*
%TO.P,D24,1,K*%
%TO.N,COL 6*%
X180990000Y-95275000D03*
D19*
%TO.P,D24,2,A*%
%TO.N,Net-(D24-A)*%
X188610000Y-95275000D03*
%TD*%
D18*
%TO.P,D11,1,K*%
%TO.N,COL 5*%
X161940000Y-57185000D03*
D19*
%TO.P,D11,2,A*%
%TO.N,Net-(D11-A)*%
X169560000Y-57185000D03*
%TD*%
D18*
%TO.P,D17,1,K*%
%TO.N,COL 5*%
X161940000Y-76235000D03*
D19*
%TO.P,D17,2,A*%
%TO.N,Net-(D17-A)*%
X169560000Y-76235000D03*
%TD*%
D18*
%TO.P,D13,1,K*%
%TO.N,COL 1*%
X85640000Y-76235000D03*
D19*
%TO.P,D13,2,A*%
%TO.N,Net-(D13-A)*%
X93260000Y-76235000D03*
%TD*%
D18*
%TO.P,D8,1,K*%
%TO.N,COL 2*%
X104690000Y-57185000D03*
D19*
%TO.P,D8,2,A*%
%TO.N,Net-(D8-A)*%
X112310000Y-57185000D03*
%TD*%
D18*
%TO.P,D29,1,K*%
%TO.N,COL 5*%
X161940000Y-114335000D03*
D19*
%TO.P,D29,2,A*%
%TO.N,Net-(D29-A)*%
X169560000Y-114335000D03*
%TD*%
D18*
%TO.P,D3,1,K*%
%TO.N,COL 3*%
X123740000Y-38135000D03*
D19*
%TO.P,D3,2,A*%
%TO.N,Net-(D3-A)*%
X131360000Y-38135000D03*
%TD*%
D18*
%TO.P,D22,1,K*%
%TO.N,COL 4*%
X142790000Y-95285000D03*
D19*
%TO.P,D22,2,A*%
%TO.N,Net-(D22-A)*%
X150410000Y-95285000D03*
%TD*%
D18*
%TO.P,D27,1,K*%
%TO.N,COL 3*%
X123840000Y-114335000D03*
D19*
%TO.P,D27,2,A*%
%TO.N,Net-(D27-A)*%
X131460000Y-114335000D03*
%TD*%
D18*
%TO.P,D2,1,K*%
%TO.N,COL 2*%
X104690000Y-38135000D03*
D19*
%TO.P,D2,2,A*%
%TO.N,Net-(D2-A)*%
X112310000Y-38135000D03*
%TD*%
D18*
%TO.P,D20,1,K*%
%TO.N,COL 2*%
X104690000Y-95285000D03*
D19*
%TO.P,D20,2,A*%
%TO.N,Net-(D20-A)*%
X112310000Y-95285000D03*
%TD*%
D18*
%TO.P,D4,1,K*%
%TO.N,COL 4*%
X142790000Y-38135000D03*
D19*
%TO.P,D4,2,A*%
%TO.N,Net-(D4-A)*%
X150410000Y-38135000D03*
%TD*%
D18*
%TO.P,D23,1,K*%
%TO.N,COL 5*%
X161940000Y-95285000D03*
D19*
%TO.P,D23,2,A*%
%TO.N,Net-(D23-A)*%
X169560000Y-95285000D03*
%TD*%
D18*
%TO.P,D28,1,K*%
%TO.N,COL 4*%
X142790000Y-114335000D03*
D19*
%TO.P,D28,2,A*%
%TO.N,Net-(D28-A)*%
X150410000Y-114335000D03*
%TD*%
D18*
%TO.P,D10,1,K*%
%TO.N,COL 4*%
X142790000Y-57185000D03*
D19*
%TO.P,D10,2,A*%
%TO.N,Net-(D10-A)*%
X150410000Y-57185000D03*
%TD*%
D18*
%TO.P,D16,1,K*%
%TO.N,COL 4*%
X142790000Y-76235000D03*
D19*
%TO.P,D16,2,A*%
%TO.N,Net-(D16-A)*%
X150410000Y-76235000D03*
%TD*%
D20*
%TO.P,SW30,1*%
%TO.N,ROW 5*%
X177690000Y-112710000D03*
%TO.P,SW30,2*%
%TO.N,Net-(D30-A)*%
X190617000Y-110170000D03*
%TD*%
%TO.P,SW25,1*%
%TO.N,ROW 5*%
X82440000Y-103185000D03*
%TO.P,SW25,2*%
%TO.N,Net-(D25-A)*%
X95367000Y-100645000D03*
%TD*%
%TO.P,SW16,1*%
%TO.N,ROW 3*%
X139590000Y-65085000D03*
%TO.P,SW16,2*%
%TO.N,Net-(D16-A)*%
X152517000Y-62545000D03*
%TD*%
%TO.P,SW9,1*%
%TO.N,ROW 2*%
X120540000Y-46035000D03*
%TO.P,SW9,2*%
%TO.N,Net-(D9-A)*%
X133467000Y-43495000D03*
%TD*%
%TO.P,SW19,1*%
%TO.N,ROW 4*%
X82440000Y-84135000D03*
%TO.P,SW19,2*%
%TO.N,Net-(D19-A)*%
X95367000Y-81595000D03*
%TD*%
%TO.P,SW14,1*%
%TO.N,ROW 3*%
X101490000Y-65085000D03*
%TO.P,SW14,2*%
%TO.N,Net-(D14-A)*%
X114417000Y-62545000D03*
%TD*%
%TO.P,SW17,1*%
%TO.N,ROW 3*%
X158640000Y-65085000D03*
%TO.P,SW17,2*%
%TO.N,Net-(D17-A)*%
X171567000Y-62545000D03*
%TD*%
%TO.P,SW23,1*%
%TO.N,ROW 4*%
X158640000Y-84135000D03*
%TO.P,SW23,2*%
%TO.N,Net-(D23-A)*%
X171567000Y-81595000D03*
%TD*%
%TO.P,SW8,1*%
%TO.N,ROW 2*%
X101490000Y-46035000D03*
%TO.P,SW8,2*%
%TO.N,Net-(D8-A)*%
X114417000Y-43495000D03*
%TD*%
%TO.P,SW22,1*%
%TO.N,ROW 4*%
X139590000Y-84135000D03*
%TO.P,SW22,2*%
%TO.N,Net-(D22-A)*%
X152517000Y-81595000D03*
%TD*%
%TO.P,SW13,1*%
%TO.N,ROW 3*%
X82440000Y-65085000D03*
%TO.P,SW13,2*%
%TO.N,Net-(D13-A)*%
X95367000Y-62545000D03*
%TD*%
%TO.P,SW11,1*%
%TO.N,ROW 2*%
X158640000Y-46035000D03*
%TO.P,SW11,2*%
%TO.N,Net-(D11-A)*%
X171567000Y-43495000D03*
%TD*%
%TO.P,SW1,1*%
%TO.N,ROW 1*%
X82440000Y-26985000D03*
%TO.P,SW1,2*%
%TO.N,Net-(D1-A)*%
X95367000Y-24445000D03*
%TD*%
%TO.P,SW10,1*%
%TO.N,ROW 2*%
X139590000Y-46035000D03*
%TO.P,SW10,2*%
%TO.N,Net-(D10-A)*%
X152517000Y-43495000D03*
%TD*%
%TO.P,SW26,1*%
%TO.N,ROW 5*%
X101490000Y-103185000D03*
%TO.P,SW26,2*%
%TO.N,Net-(D26-A)*%
X114417000Y-100645000D03*
%TD*%
%TO.P,SW21,1*%
%TO.N,ROW 4*%
X120540000Y-84135000D03*
%TO.P,SW21,2*%
%TO.N,Net-(D21-A)*%
X133467000Y-81595000D03*
%TD*%
%TO.P,SW15,1*%
%TO.N,ROW 3*%
X120540000Y-65085000D03*
%TO.P,SW15,2*%
%TO.N,Net-(D15-A)*%
X133467000Y-62545000D03*
%TD*%
%TO.P,SW2,1*%
%TO.N,ROW 1*%
X101490000Y-26985000D03*
%TO.P,SW2,2*%
%TO.N,Net-(D2-A)*%
X114417000Y-24445000D03*
%TD*%
%TO.P,SW12,1*%
%TO.N,ROW 2*%
X177690000Y-46035000D03*
%TO.P,SW12,2*%
%TO.N,Net-(D12-A)*%
X190617000Y-43495000D03*
%TD*%
%TO.P,SW7,1*%
%TO.N,ROW 2*%
X82440000Y-46035000D03*
%TO.P,SW7,2*%
%TO.N,Net-(D7-A)*%
X95367000Y-43495000D03*
%TD*%
%TO.P,SW24,1*%
%TO.N,ROW 4*%
X177690000Y-84135000D03*
%TO.P,SW24,2*%
%TO.N,Net-(D24-A)*%
X190617000Y-81595000D03*
%TD*%
%TO.P,SW18,1*%
%TO.N,ROW 3*%
X177690000Y-65085000D03*
%TO.P,SW18,2*%
%TO.N,Net-(D18-A)*%
X190617000Y-62545000D03*
%TD*%
%TO.P,SW6,1*%
%TO.N,ROW 1*%
X177690000Y-26985000D03*
%TO.P,SW6,2*%
%TO.N,Net-(D6-A)*%
X190617000Y-24445000D03*
%TD*%
%TO.P,SW5,1*%
%TO.N,ROW 1*%
X158640000Y-26985000D03*
%TO.P,SW5,2*%
%TO.N,Net-(D5-A)*%
X171567000Y-24445000D03*
%TD*%
%TO.P,SW28,1*%
%TO.N,ROW 5*%
X139590000Y-103185000D03*
%TO.P,SW28,2*%
%TO.N,Net-(D28-A)*%
X152517000Y-100645000D03*
%TD*%
%TO.P,SW3,1*%
%TO.N,ROW 1*%
X120540000Y-26985000D03*
%TO.P,SW3,2*%
%TO.N,Net-(D3-A)*%
X133467000Y-24445000D03*
%TD*%
%TO.P,SW20,1*%
%TO.N,ROW 4*%
X101490000Y-84135000D03*
%TO.P,SW20,2*%
%TO.N,Net-(D20-A)*%
X114417000Y-81595000D03*
%TD*%
%TO.P,SW29,1*%
%TO.N,ROW 5*%
X158640000Y-103185000D03*
%TO.P,SW29,2*%
%TO.N,Net-(D29-A)*%
X171567000Y-100645000D03*
%TD*%
%TO.P,SW4,1*%
%TO.N,ROW 1*%
X139590000Y-26985000D03*
%TO.P,SW4,2*%
%TO.N,Net-(D4-A)*%
X152517000Y-24445000D03*
%TD*%
%TO.P,SW27,1*%
%TO.N,ROW 5*%
X120540000Y-103185000D03*
%TO.P,SW27,2*%
%TO.N,Net-(D27-A)*%
X133467000Y-100645000D03*
%TD*%
D21*
%TO.N,COL 6*%
X144550000Y-127550000D03*
%TO.N,ROW 4*%
X129975000Y-130400000D03*
X123950000Y-89800000D03*
%TO.N,ROW 3*%
X133930000Y-70520000D03*
X133450000Y-128700000D03*
%TO.N,ROW 2*%
X142750000Y-52400000D03*
X143890000Y-117250000D03*
%TD*%
D22*
%TO.N,Net-(D1-A)*%
X95367000Y-24445000D02*
X95367000Y-25695000D01*
X93260000Y-27802000D02*
X93260000Y-38135000D01*
X95367000Y-25695000D02*
X93260000Y-27802000D01*
%TO.N,Net-(D2-A)*%
X112310000Y-26552000D02*
X112310000Y-38135000D01*
X114417000Y-24445000D02*
X112310000Y-26552000D01*
%TO.N,Net-(D3-A)*%
X131360000Y-29113402D02*
X131360000Y-38135000D01*
X133467000Y-27006402D02*
X131360000Y-29113402D01*
X133467000Y-24445000D02*
X133467000Y-27006402D01*
%TO.N,COL 3*%
X123840000Y-121770000D02*
X123840000Y-114335000D01*
X128250000Y-126180000D02*
X123840000Y-121770000D01*
%TO.N,COL 4*%
X136014466Y-112750000D02*
X141205000Y-112750000D01*
X130175000Y-126795000D02*
X130175000Y-118589466D01*
X128250000Y-128720000D02*
X130175000Y-126795000D01*
X130175000Y-118589466D02*
X136014466Y-112750000D01*
X141205000Y-112750000D02*
X142790000Y-114335000D01*
%TO.N,Net-(D4-A)*%
X152517000Y-24445000D02*
X150410000Y-26552000D01*
X150410000Y-26552000D02*
X150410000Y-38135000D01*
%TO.N,Net-(D5-A)*%
X169460000Y-29113402D02*
X169460000Y-38135000D01*
X171567000Y-27006402D02*
X169460000Y-29113402D01*
X171567000Y-24445000D02*
X171567000Y-27006402D01*
%TO.N,COL 5*%
X134120000Y-120180000D02*
X130575000Y-123725000D01*
X145188529Y-117700000D02*
X144138529Y-116650000D01*
X139200000Y-116650000D02*
X135670000Y-120180000D01*
X161940000Y-114335000D02*
X158575000Y-117700000D01*
X158575000Y-117700000D02*
X145188529Y-117700000D01*
X130575000Y-123725000D02*
X130575000Y-128935000D01*
X144138529Y-116650000D02*
X139200000Y-116650000D01*
X130575000Y-128935000D02*
X128250000Y-131260000D01*
X135670000Y-120180000D02*
X134120000Y-120180000D01*
%TO.N,Net-(D6-A)*%
X190617000Y-24445000D02*
X190617000Y-27006402D01*
X190617000Y-27006402D02*
X188510000Y-29113402D01*
X188510000Y-29113402D02*
X188510000Y-38135000D01*
%TO.N,Net-(D7-A)*%
X95367000Y-43495000D02*
X93260000Y-45602000D01*
X93260000Y-45602000D02*
X93260000Y-57185000D01*
%TO.N,Net-(D8-A)*%
X114417000Y-43495000D02*
X112310000Y-45602000D01*
X112310000Y-45602000D02*
X112310000Y-57185000D01*
%TO.N,Net-(D9-A)*%
X131460000Y-45502000D02*
X131460000Y-57185000D01*
X133467000Y-43495000D02*
X131460000Y-45502000D01*
%TO.N,Net-(D10-A)*%
X150410000Y-45602000D02*
X150410000Y-57185000D01*
X152517000Y-43495000D02*
X150410000Y-45602000D01*
%TO.N,Net-(D11-A)*%
X171567000Y-43495000D02*
X169560000Y-45502000D01*
X169560000Y-45502000D02*
X169560000Y-57185000D01*
%TO.N,Net-(D12-A)*%
X190617000Y-43495000D02*
X188610000Y-45502000D01*
X188610000Y-45502000D02*
X188610000Y-57175000D01*
%TO.N,Net-(D13-A)*%
X95367000Y-62545000D02*
X93260000Y-64652000D01*
X93260000Y-64652000D02*
X93260000Y-76235000D01*
%TO.N,Net-(D14-A)*%
X112310000Y-64652000D02*
X112310000Y-76235000D01*
X114417000Y-62545000D02*
X112310000Y-64652000D01*
%TO.N,Net-(D15-A)*%
X133467000Y-62545000D02*
X131460000Y-64552000D01*
X131460000Y-64552000D02*
X131460000Y-76235000D01*
%TO.N,Net-(D16-A)*%
X150410000Y-64652000D02*
X150410000Y-76235000D01*
X152517000Y-62545000D02*
X150410000Y-64652000D01*
%TO.N,Net-(D17-A)*%
X169560000Y-64552000D02*
X169560000Y-76235000D01*
X171567000Y-62545000D02*
X169560000Y-64552000D01*
%TO.N,Net-(D18-A)*%
X188610000Y-64552000D02*
X188610000Y-76225000D01*
X190617000Y-62545000D02*
X188610000Y-64552000D01*
%TO.N,Net-(D19-A)*%
X93260000Y-83702000D02*
X93260000Y-95285000D01*
X95367000Y-81595000D02*
X93260000Y-83702000D01*
%TO.N,Net-(D20-A)*%
X114417000Y-81595000D02*
X112310000Y-83702000D01*
X112310000Y-83702000D02*
X112310000Y-95285000D01*
%TO.N,Net-(D21-A)*%
X131460000Y-83602000D02*
X131460000Y-95285000D01*
X133467000Y-81595000D02*
X131460000Y-83602000D01*
%TO.N,Net-(D22-A)*%
X150410000Y-83702000D02*
X150410000Y-95285000D01*
X152517000Y-81595000D02*
X150410000Y-83702000D01*
%TO.N,Net-(D23-A)*%
X171567000Y-81595000D02*
X169560000Y-83602000D01*
X169560000Y-83602000D02*
X169560000Y-95285000D01*
%TO.N,Net-(D24-A)*%
X188610000Y-83602000D02*
X188610000Y-95275000D01*
X190617000Y-81595000D02*
X188610000Y-83602000D01*
%TO.N,Net-(D25-A)*%
X93260000Y-102752000D02*
X93260000Y-114335000D01*
X95367000Y-100645000D02*
X93260000Y-102752000D01*
%TO.N,COL 6*%
X171200000Y-123300000D02*
X151210000Y-123300000D01*
X172550000Y-121950000D02*
X171200000Y-123300000D01*
X151210000Y-123300000D02*
X146960000Y-127550000D01*
X146960000Y-127550000D02*
X144550000Y-127550000D01*
%TO.N,Net-(D26-A)*%
X112310000Y-102752000D02*
X112310000Y-114335000D01*
X114417000Y-100645000D02*
X112310000Y-102752000D01*
%TO.N,ROW 4*%
X154225000Y-79720000D02*
X158640000Y-84135000D01*
X124955000Y-79720000D02*
X135175000Y-79720000D01*
X144005000Y-79720000D02*
X154225000Y-79720000D01*
X158640000Y-84135000D02*
X163055000Y-79720000D01*
X120540000Y-84135000D02*
X124955000Y-79720000D01*
X86855000Y-79720000D02*
X97075000Y-79720000D01*
X135175000Y-79720000D02*
X139590000Y-84135000D01*
X173275000Y-79720000D02*
X177690000Y-84135000D01*
X123950000Y-89800000D02*
X123937588Y-89800000D01*
X129975000Y-139455000D02*
X128250000Y-141180000D01*
X139590000Y-84135000D02*
X144005000Y-79720000D01*
X116125000Y-79720000D02*
X120540000Y-84135000D01*
X82440000Y-84135000D02*
X86855000Y-79720000D01*
X101490000Y-84135000D02*
X105905000Y-79720000D01*
X120540000Y-86402412D02*
X120540000Y-84135000D01*
X97075000Y-79720000D02*
X101490000Y-84135000D01*
X105905000Y-79720000D02*
X116125000Y-79720000D01*
X163055000Y-79720000D02*
X173275000Y-79720000D01*
X129975000Y-130400000D02*
X129975000Y-139455000D01*
X123937588Y-89800000D02*
X120540000Y-86402412D01*
X128250000Y-141180000D02*
X128250000Y-141420000D01*
%TO.N,ROW 3*%
X135175000Y-60670000D02*
X139590000Y-65085000D01*
X173275000Y-60670000D02*
X177690000Y-65085000D01*
X86855000Y-60670000D02*
X97075000Y-60670000D01*
X82440000Y-65085000D02*
X86855000Y-60670000D01*
X124955000Y-60670000D02*
X135175000Y-60670000D01*
X154225000Y-60670000D02*
X158640000Y-65085000D01*
X116125000Y-60670000D02*
X120540000Y-65085000D01*
X139590000Y-65085000D02*
X144005000Y-60670000D01*
X133930000Y-70520000D02*
X139365000Y-65085000D01*
X133450000Y-141300000D02*
X128250000Y-146500000D01*
X97075000Y-60670000D02*
X101490000Y-65085000D01*
X120540000Y-65085000D02*
X124955000Y-60670000D01*
X163055000Y-60670000D02*
X173275000Y-60670000D01*
X133450000Y-128550000D02*
X133450000Y-141300000D01*
X158640000Y-65085000D02*
X163055000Y-60670000D01*
X105905000Y-60670000D02*
X116125000Y-60670000D01*
X144005000Y-60670000D02*
X154225000Y-60670000D01*
X139365000Y-65085000D02*
X139590000Y-65085000D01*
X101490000Y-65085000D02*
X105905000Y-60670000D01*
%TO.N,ROW 2*%
X97075000Y-41620000D02*
X101490000Y-46035000D01*
X101490000Y-46035000D02*
X105905000Y-41620000D01*
X143890000Y-133400000D02*
X128250000Y-149040000D01*
X120540000Y-46035000D02*
X124955000Y-41620000D01*
X139590000Y-49240000D02*
X139590000Y-46035000D01*
X116125000Y-41620000D02*
X120540000Y-46035000D01*
X142750000Y-52400000D02*
X139590000Y-49240000D01*
X143890000Y-117250000D02*
X143890000Y-133400000D01*
X144005000Y-41620000D02*
X154225000Y-41620000D01*
X82440000Y-46035000D02*
X86855000Y-41620000D01*
X135175000Y-41620000D02*
X139590000Y-46035000D01*
X86855000Y-41620000D02*
X97075000Y-41620000D01*
X124955000Y-41620000D02*
X135175000Y-41620000D01*
X139590000Y-46035000D02*
X144005000Y-41620000D01*
X154225000Y-41620000D02*
X158640000Y-46035000D01*
X173275000Y-41620000D02*
X177690000Y-46035000D01*
X158640000Y-46035000D02*
X163055000Y-41620000D01*
X105905000Y-41620000D02*
X116125000Y-41620000D01*
X163055000Y-41620000D02*
X173275000Y-41620000D01*
%TO.N,ROW 5*%
X174965000Y-115435000D02*
X177690000Y-112710000D01*
X139590000Y-103185000D02*
X144005000Y-98770000D01*
X158640000Y-103185000D02*
X158640000Y-105452412D01*
X116125000Y-98770000D02*
X120540000Y-103185000D01*
X158640000Y-105452412D02*
X168622588Y-115435000D01*
X82440000Y-103185000D02*
X86855000Y-98770000D01*
X135175000Y-98770000D02*
X139590000Y-103185000D01*
X105905000Y-98770000D02*
X116125000Y-98770000D01*
X154225000Y-98770000D02*
X158640000Y-103185000D01*
X120540000Y-103185000D02*
X124955000Y-98770000D01*
X120550000Y-103195000D02*
X120540000Y-103185000D01*
X144005000Y-98770000D02*
X154225000Y-98770000D01*
X97075000Y-98770000D02*
X101490000Y-103185000D01*
X86855000Y-98770000D02*
X97075000Y-98770000D01*
X124955000Y-98770000D02*
X135175000Y-98770000D01*
X128250000Y-136340000D02*
X120550000Y-128640000D01*
X120550000Y-128640000D02*
X120550000Y-103195000D01*
X101490000Y-103185000D02*
X105905000Y-98770000D01*
X168622588Y-115435000D02*
X174965000Y-115435000D01*
%TO.N,ROW 1*%
X158640000Y-26985000D02*
X163055000Y-22570000D01*
X80865000Y-82900256D02*
X80865000Y-93579466D01*
X101490000Y-26985000D02*
X105905000Y-22570000D01*
X80865000Y-93579466D02*
X83200000Y-95914466D01*
X82500000Y-62215256D02*
X80700000Y-64015256D01*
X97950000Y-112750000D02*
X105934744Y-112750000D01*
X82450000Y-76114466D02*
X82450000Y-81315256D01*
X154225000Y-22570000D02*
X158640000Y-26985000D01*
X80700000Y-64015256D02*
X80700000Y-74364466D01*
X82440000Y-26985000D02*
X86855000Y-22570000D01*
X80650000Y-44900000D02*
X80650000Y-55214466D01*
X82450000Y-26995000D02*
X82450000Y-43100000D01*
X105905000Y-22570000D02*
X116125000Y-22570000D01*
X135175000Y-22570000D02*
X139590000Y-26985000D01*
X139590000Y-26985000D02*
X144005000Y-22570000D01*
X86855000Y-22570000D02*
X97075000Y-22570000D01*
X120540000Y-26985000D02*
X124955000Y-22570000D01*
X105934744Y-112750000D02*
X117200000Y-124015256D01*
X82450000Y-81315256D02*
X80865000Y-82900256D01*
X83200000Y-95914466D02*
X83200000Y-99615256D01*
X80865000Y-104465000D02*
X91835000Y-115435000D01*
X82440000Y-26985000D02*
X82450000Y-26995000D01*
X163055000Y-22570000D02*
X173275000Y-22570000D01*
X80865000Y-101950256D02*
X80865000Y-104465000D01*
X91835000Y-115435000D02*
X95265000Y-115435000D01*
X82450000Y-43100000D02*
X80650000Y-44900000D01*
X117200000Y-143070000D02*
X128250000Y-154120000D01*
X82500000Y-57064466D02*
X82500000Y-62215256D01*
X173275000Y-22570000D02*
X177690000Y-26985000D01*
X80700000Y-74364466D02*
X82450000Y-76114466D01*
X116125000Y-22570000D02*
X120540000Y-26985000D01*
X95265000Y-115435000D02*
X97950000Y-112750000D01*
X83200000Y-99615256D02*
X80865000Y-101950256D01*
X124955000Y-22570000D02*
X135175000Y-22570000D01*
X117200000Y-124015256D02*
X117200000Y-143070000D01*
X144005000Y-22570000D02*
X154225000Y-22570000D01*
X80650000Y-55214466D02*
X82500000Y-57064466D01*
X97075000Y-22570000D02*
X101490000Y-26985000D01*
%TO.N,Net-(D27-A)*%
X131460000Y-102652000D02*
X131460000Y-114335000D01*
X133467000Y-100645000D02*
X131460000Y-102652000D01*
%TO.N,Net-(D28-A)*%
X152517000Y-100645000D02*
X150410000Y-102752000D01*
X150410000Y-102752000D02*
X150410000Y-114335000D01*
%TO.N,Net-(D29-A)*%
X171567000Y-100645000D02*
X169560000Y-102652000D01*
X169560000Y-102652000D02*
X169560000Y-114335000D01*
%TO.N,Net-(D30-A)*%
X190617000Y-110170000D02*
X188742000Y-108295000D01*
X178585000Y-108295000D02*
X172550000Y-114330000D01*
X188742000Y-108295000D02*
X178585000Y-108295000D01*
%TD*%
M02*
