M48
; DRILL file {KiCad 8.0.6} date 2025-03-28T01:06:33-0400
; FORMAT={-:-/ absolute / inch / decimal}
; #@! TF.CreationDate,2025-03-28T01:06:33-04:00
; #@! TF.GenerationSoftware,Kicad,Pcbnew,8.0.6
; #@! TF.FileFunction,Plated,1,2,PTH
FMAT,2
INCH
; #@! TA.AperFunction,Plated,PTH,ViaDrill
T1C0.0118
; #@! TA.AperFunction,Plated,PTH,ComponentDrill
T2C0.0157
; #@! TA.AperFunction,Plated,PTH,ComponentDrill
T3C0.0315
; #@! TA.AperFunction,Plated,PTH,ComponentDrill
T4C0.0374
; #@! TA.AperFunction,Plated,PTH,ComponentDrill
T5C0.0394
; #@! TA.AperFunction,Plated,PTH,ComponentDrill
T6C0.0402
; #@! TA.AperFunction,Plated,PTH,ComponentDrill
T7C0.0866
%
G90
G05
T1
X4.8799Y-3.5354
X5.1171Y-5.1339
X5.2539Y-5.0669
X5.2728Y-2.7764
X5.6201Y-2.063
X5.665Y-4.6161
X5.6909Y-5.0217
T2
X3.0807Y-3.7854
X3.0827Y-1.5374
X3.0827Y-3.0374
X3.0846Y-0.7874
X3.0846Y-2.2874
X3.0846Y-4.5374
X3.0997Y-3.7395
X3.0997Y-3.8314
X3.1017Y-1.4915
X3.1017Y-1.5833
X3.1017Y-2.9915
X3.1017Y-3.0833
X3.1037Y-0.7415
X3.1037Y-0.8333
X3.1037Y-2.2415
X3.1037Y-2.3333
X3.1037Y-4.4915
X3.1037Y-4.5833
X3.1457Y-3.7205
X3.1457Y-3.8504
X3.1476Y-1.4724
X3.1476Y-1.6024
X3.1476Y-2.9724
X3.1476Y-3.1024
X3.1496Y-0.7224
X3.1496Y-0.8524
X3.1496Y-2.2224
X3.1496Y-2.3524
X3.1496Y-4.4724
X3.1496Y-4.6024
X3.1916Y-3.7395
X3.1916Y-3.8314
X3.1936Y-1.4915
X3.1936Y-1.5833
X3.1936Y-2.9915
X3.1936Y-3.0833
X3.1955Y-0.7415
X3.1955Y-0.8333
X3.1955Y-2.2415
X3.1955Y-2.3333
X3.1955Y-4.4915
X3.1955Y-4.5833
X3.2106Y-3.7854
X3.2126Y-1.5374
X3.2126Y-3.0374
X3.2146Y-0.7874
X3.2146Y-2.2874
X3.2146Y-4.5374
X3.8287Y-3.7854
X3.8307Y-1.5374
X3.8307Y-3.0374
X3.8327Y-0.7874
X3.8327Y-2.2874
X3.8327Y-4.5374
X3.8478Y-3.7395
X3.8478Y-3.8314
X3.8497Y-1.4915
X3.8497Y-1.5833
X3.8497Y-2.9915
X3.8497Y-3.0833
X3.8517Y-0.7415
X3.8517Y-0.8333
X3.8517Y-2.2415
X3.8517Y-2.3333
X3.8517Y-4.4915
X3.8517Y-4.5833
X3.8937Y-3.7205
X3.8937Y-3.8504
X3.8957Y-1.4724
X3.8957Y-1.6024
X3.8957Y-2.9724
X3.8957Y-3.1024
X3.8976Y-0.7224
X3.8976Y-0.8524
X3.8976Y-2.2224
X3.8976Y-2.3524
X3.8976Y-4.4724
X3.8976Y-4.6024
X3.9396Y-3.7395
X3.9396Y-3.8314
X3.9416Y-1.4915
X3.9416Y-1.5833
X3.9416Y-2.9915
X3.9416Y-3.0833
X3.9436Y-0.7415
X3.9436Y-0.8333
X3.9436Y-2.2415
X3.9436Y-2.3333
X3.9436Y-4.4915
X3.9436Y-4.5833
X3.9587Y-3.7854
X3.9606Y-1.5374
X3.9606Y-3.0374
X3.9626Y-0.7874
X3.9626Y-2.2874
X3.9626Y-4.5374
X4.4035Y-6.6476
X4.4226Y-6.6017
X4.4226Y-6.6936
X4.4685Y-6.5827
X4.4685Y-6.7126
X4.5144Y-6.6017
X4.5144Y-6.6936
X4.5335Y-6.6476
X4.5827Y-0.7854
X4.5827Y-2.2874
X4.5827Y-3.7874
X4.5827Y-4.5374
X4.5846Y-1.5374
X4.5846Y-3.0374
X4.6017Y-0.7395
X4.6017Y-0.8314
X4.6017Y-2.2415
X4.6017Y-2.3333
X4.6017Y-3.7415
X4.6017Y-3.8333
X4.6017Y-4.4915
X4.6017Y-4.5833
X4.6037Y-1.4915
X4.6037Y-1.5833
X4.6037Y-2.9915
X4.6037Y-3.0833
X4.6476Y-0.7205
X4.6476Y-0.8504
X4.6476Y-2.2224
X4.6476Y-2.3524
X4.6476Y-3.7224
X4.6476Y-3.8524
X4.6476Y-4.4724
X4.6476Y-4.6024
X4.6496Y-1.4724
X4.6496Y-1.6024
X4.6496Y-2.9724
X4.6496Y-3.1024
X4.6936Y-0.7395
X4.6936Y-0.8314
X4.6936Y-2.2415
X4.6936Y-2.3333
X4.6936Y-3.7415
X4.6936Y-3.8333
X4.6936Y-4.4915
X4.6936Y-4.5833
X4.6955Y-1.4915
X4.6955Y-1.5833
X4.6955Y-2.9915
X4.6955Y-3.0833
X4.7126Y-0.7854
X4.7126Y-2.2874
X4.7126Y-3.7874
X4.7126Y-4.5374
X4.7146Y-1.5374
X4.7146Y-3.0374
X5.3307Y-0.7854
X5.3307Y-2.2874
X5.3307Y-3.7874
X5.3307Y-4.5374
X5.3327Y-1.5374
X5.3327Y-3.0374
X5.3497Y-0.7395
X5.3497Y-0.8314
X5.3497Y-2.2415
X5.3497Y-2.3333
X5.3497Y-3.7415
X5.3497Y-3.8333
X5.3497Y-4.4915
X5.3497Y-4.5833
X5.3517Y-1.4915
X5.3517Y-1.5833
X5.3517Y-2.9915
X5.3517Y-3.0833
X5.3957Y-0.7205
X5.3957Y-0.8504
X5.3957Y-2.2224
X5.3957Y-2.3524
X5.3957Y-3.7224
X5.3957Y-3.8524
X5.3957Y-4.4724
X5.3957Y-4.6024
X5.3976Y-1.4724
X5.3976Y-1.6024
X5.3976Y-2.9724
X5.3976Y-3.1024
X5.4416Y-0.7395
X5.4416Y-0.8314
X5.4416Y-2.2415
X5.4416Y-2.3333
X5.4416Y-3.7415
X5.4416Y-3.8333
X5.4416Y-4.4915
X5.4416Y-4.5833
X5.4436Y-1.4915
X5.4436Y-1.5833
X5.4436Y-2.9915
X5.4436Y-3.0833
X5.4606Y-0.7854
X5.4606Y-2.2874
X5.4606Y-3.7874
X5.4606Y-4.5374
X5.4626Y-1.5374
X5.4626Y-3.0374
X6.0787Y-4.5354
X6.0807Y-0.7835
X6.0827Y-1.5354
X6.0827Y-3.0354
X6.0846Y-2.2874
X6.0846Y-3.7874
X6.0978Y-4.4895
X6.0978Y-4.5814
X6.0997Y-0.7375
X6.0997Y-0.8294
X6.1017Y-1.4895
X6.1017Y-1.5814
X6.1017Y-2.9895
X6.1017Y-3.0814
X6.1037Y-2.2415
X6.1037Y-2.3333
X6.1037Y-3.7415
X6.1037Y-3.8333
X6.1437Y-4.4705
X6.1437Y-4.6004
X6.1457Y-0.7185
X6.1457Y-0.8484
X6.1476Y-1.4705
X6.1476Y-1.6004
X6.1476Y-2.9705
X6.1476Y-3.1004
X6.1496Y-2.2224
X6.1496Y-2.3524
X6.1496Y-3.7224
X6.1496Y-3.8524
X6.1896Y-4.4895
X6.1896Y-4.5814
X6.1916Y-0.7375
X6.1916Y-0.8294
X6.1936Y-1.4895
X6.1936Y-1.5814
X6.1936Y-2.9895
X6.1936Y-3.0814
X6.1955Y-2.2415
X6.1955Y-2.3333
X6.1955Y-3.7415
X6.1955Y-3.8333
X6.2087Y-4.5354
X6.2106Y-0.7835
X6.2126Y-1.5354
X6.2126Y-3.0354
X6.2146Y-2.2874
X6.2146Y-3.7874
X6.2657Y-6.6476
X6.2848Y-6.6017
X6.2848Y-6.6936
X6.3307Y-6.5827
X6.3307Y-6.7126
X6.3766Y-6.6017
X6.3766Y-6.6936
X6.3957Y-6.6476
X6.8287Y-0.7835
X6.8307Y-1.5354
X6.8307Y-3.0354
X6.8327Y-2.2874
X6.8327Y-3.7874
X6.834Y-5.2441
X6.8478Y-0.7375
X6.8478Y-0.8294
X6.8497Y-1.4895
X6.8497Y-1.5814
X6.8497Y-2.9895
X6.8497Y-3.0814
X6.8517Y-2.2415
X6.8517Y-2.3333
X6.8517Y-3.7415
X6.8517Y-3.8333
X6.853Y-5.1982
X6.853Y-5.29
X6.8937Y-0.7185
X6.8937Y-0.8484
X6.8957Y-1.4705
X6.8957Y-1.6004
X6.8957Y-2.9705
X6.8957Y-3.1004
X6.8976Y-2.2224
X6.8976Y-2.3524
X6.8976Y-3.7224
X6.8976Y-3.8524
X6.8989Y-5.1791
X6.8989Y-5.3091
X6.9396Y-0.7375
X6.9396Y-0.8294
X6.9416Y-1.4895
X6.9416Y-1.5814
X6.9416Y-2.9895
X6.9416Y-3.0814
X6.9436Y-2.2415
X6.9436Y-2.3333
X6.9436Y-3.7415
X6.9436Y-3.8333
X6.9449Y-5.1982
X6.9449Y-5.29
X6.9587Y-0.7835
X6.9606Y-1.5354
X6.9606Y-3.0354
X6.9626Y-2.2874
X6.9626Y-3.7874
X6.9639Y-5.2441
X7.5807Y-2.2874
X7.5827Y-1.5374
X7.5827Y-3.7874
X7.5846Y-0.7874
X7.5846Y-3.0374
X7.5846Y-5.2441
X7.5997Y-2.2415
X7.5997Y-2.3333
X7.6017Y-1.4915
X7.6017Y-1.5833
X7.6017Y-3.7415
X7.6017Y-3.8333
X7.6037Y-0.7415
X7.6037Y-0.8333
X7.6037Y-2.9915
X7.6037Y-3.0833
X7.6037Y-5.1982
X7.6037Y-5.29
X7.6457Y-2.2224
X7.6457Y-2.3524
X7.6476Y-1.4724
X7.6476Y-1.6024
X7.6476Y-3.7224
X7.6476Y-3.8524
X7.6496Y-0.7224
X7.6496Y-0.8524
X7.6496Y-2.9724
X7.6496Y-3.1024
X7.6496Y-5.1791
X7.6496Y-5.3091
X7.6916Y-2.2415
X7.6916Y-2.3333
X7.6936Y-1.4915
X7.6936Y-1.5833
X7.6936Y-3.7415
X7.6936Y-3.8333
X7.6955Y-0.7415
X7.6955Y-0.8333
X7.6955Y-2.9915
X7.6955Y-3.0833
X7.6955Y-5.1982
X7.6955Y-5.29
X7.7106Y-2.2874
X7.7126Y-1.5374
X7.7126Y-3.7874
X7.7146Y-0.7874
X7.7146Y-3.0374
X7.7146Y-5.2441
T3
X3.3717Y-1.5014
X3.3717Y-2.2514
X3.3717Y-3.0014
X3.3717Y-3.7514
X3.3717Y-4.5014
X3.6717Y-1.5014
X3.6717Y-2.2514
X3.6717Y-3.0014
X3.6717Y-3.7514
X3.6717Y-4.5014
X4.1217Y-1.5014
X4.1217Y-2.2514
X4.1217Y-3.0014
X4.1217Y-3.7514
X4.1217Y-4.5014
X4.4217Y-1.5014
X4.4217Y-2.2514
X4.4217Y-3.0014
X4.4217Y-3.7514
X4.4217Y-4.5014
X4.8717Y-1.5014
X4.8756Y-2.2514
X4.8756Y-3.0014
X4.8756Y-3.7514
X4.8756Y-4.5014
X5.1717Y-1.5014
X5.1756Y-2.2514
X5.1756Y-3.0014
X5.1756Y-3.7514
X5.1756Y-4.5014
X5.6217Y-1.5014
X5.6217Y-2.2514
X5.6217Y-3.0014
X5.6217Y-3.7514
X5.6217Y-4.5014
X5.9217Y-1.5014
X5.9217Y-2.2514
X5.9217Y-3.0014
X5.9217Y-3.7514
X5.9217Y-4.5014
X6.3717Y-1.5014
X6.3756Y-2.2514
X6.3756Y-3.0014
X6.3756Y-3.7514
X6.3756Y-4.5014
X6.6717Y-1.5014
X6.6756Y-2.2514
X6.6756Y-3.0014
X6.6756Y-3.7514
X6.6756Y-4.5014
X6.7933Y-4.5012
X6.7933Y-4.8012
X7.1217Y-1.5014
X7.1256Y-2.251
X7.1256Y-3.001
X7.1256Y-3.751
X7.4217Y-1.5014
X7.4256Y-2.251
X7.4256Y-3.001
X7.4256Y-3.751
T4
X6.2264Y-4.8091
X6.2264Y-4.9075
X6.2264Y-5.0059
X6.2264Y-5.1043
X6.2264Y-5.2028
T5
X4.563Y-4.9154
X4.6614Y-4.9154
T6
X5.0492Y-4.7677
X5.0492Y-4.8677
X5.0492Y-4.9677
X5.0492Y-5.0677
X5.0492Y-5.1677
X5.0492Y-5.2677
X5.0492Y-5.3677
X5.0492Y-5.4677
X5.0492Y-5.5677
X5.0492Y-5.6677
X5.0492Y-5.7677
X5.0492Y-5.8677
X5.0492Y-5.9677
X5.0492Y-6.0677
X5.0492Y-6.1677
X5.0492Y-6.2677
X5.0492Y-6.3677
X5.0492Y-6.4677
X5.0492Y-6.5677
X5.0492Y-6.6677
X5.2992Y-4.7768
X5.3992Y-4.7768
X5.4992Y-4.7768
X5.7492Y-4.7677
X5.7492Y-4.8677
X5.7492Y-4.9677
X5.7492Y-5.0677
X5.7492Y-5.1677
X5.7492Y-5.2677
X5.7492Y-5.3677
X5.7492Y-5.4677
X5.7492Y-5.5677
X5.7492Y-5.6677
X5.7492Y-5.7677
X5.7492Y-5.8677
X5.7492Y-5.9677
X5.7492Y-6.0677
X5.7492Y-6.1677
X5.7492Y-6.2677
X5.7492Y-6.3677
X5.7492Y-6.4677
X5.7492Y-6.5677
X5.7492Y-6.6677
T7
X3.1457Y-3.7854
X3.1476Y-1.5374
X3.1476Y-3.0374
X3.1496Y-0.7874
X3.1496Y-2.2874
X3.1496Y-4.5374
X3.8937Y-3.7854
X3.8957Y-1.5374
X3.8957Y-3.0374
X3.8976Y-0.7874
X3.8976Y-2.2874
X3.8976Y-4.5374
X4.4685Y-6.6476
X4.6476Y-0.7854
X4.6476Y-2.2874
X4.6476Y-3.7874
X4.6476Y-4.5374
X4.6496Y-1.5374
X4.6496Y-3.0374
X5.3957Y-0.7854
X5.3957Y-2.2874
X5.3957Y-3.7874
X5.3957Y-4.5374
X5.3976Y-1.5374
X5.3976Y-3.0374
X6.1437Y-4.5354
X6.1457Y-0.7835
X6.1476Y-1.5354
X6.1476Y-3.0354
X6.1496Y-2.2874
X6.1496Y-3.7874
X6.3307Y-6.6476
X6.8937Y-0.7835
X6.8957Y-1.5354
X6.8957Y-3.0354
X6.8976Y-2.2874
X6.8976Y-3.7874
X6.8989Y-5.2441
X7.6457Y-2.2874
X7.6476Y-1.5374
X7.6476Y-3.7874
X7.6496Y-0.7874
X7.6496Y-3.0374
X7.6496Y-5.2441
M30
