M48
; DRILL file {KiCad 8.0.6} date 2025-03-28T01:06:33-0400
; FORMAT={-:-/ absolute / inch / decimal}
; #@! TF.CreationDate,2025-03-28T01:06:33-04:00
; #@! TF.GenerationSoftware,Kicad,Pcbnew,8.0.6
; #@! TF.FileFunction,NonPlated,1,2,NPTH
FMAT,2
INCH
; #@! TA.AperFunction,NonPlated,NPTH,ComponentDrill
T1C0.0591
; #@! TA.AperFunction,NonPlated,NPTH,ComponentDrill
T2C0.0689
; #@! TA.AperFunction,NonPlated,NPTH,ComponentDrill
T3C0.0709
; #@! TA.AperFunction,NonPlated,NPTH,ComponentDrill
T4C0.1200
; #@! TA.AperFunction,NonPlated,NPTH,ComponentDrill
T5C0.1201
; #@! TA.AperFunction,NonPlated,NPTH,ComponentDrill
T6C0.1570
; #@! TA.AperFunction,NonPlated,NPTH,ComponentDrill
T7C0.1575
%
G90
G05
T1
X5.3037Y-6.5433
X5.4947Y-6.5433
T2
X3.3246Y-1.1624
X3.3246Y-1.9124
X3.3246Y-2.6624
X3.3246Y-3.4124
X3.3246Y-4.1624
X3.7246Y-1.1624
X3.7246Y-1.9124
X3.7246Y-2.6624
X3.7246Y-3.4124
X3.7246Y-4.1624
X4.0746Y-1.1624
X4.0746Y-1.9124
X4.0746Y-2.6624
X4.0746Y-3.4124
X4.0746Y-4.1624
X4.4746Y-1.1624
X4.4746Y-1.9124
X4.4746Y-2.6624
X4.4746Y-3.4124
X4.4746Y-4.1624
X4.8246Y-1.1624
X4.8246Y-1.9124
X4.8246Y-2.6624
X4.8246Y-3.4124
X4.8246Y-4.1624
X5.2246Y-1.1624
X5.2246Y-1.9124
X5.2246Y-2.6624
X5.2246Y-3.4124
X5.2246Y-4.1624
X5.5746Y-1.1624
X5.5746Y-1.9124
X5.5746Y-2.6624
X5.5746Y-3.4124
X5.5746Y-4.1624
X5.9746Y-1.1624
X5.9746Y-1.9124
X5.9746Y-2.6624
X5.9746Y-3.4124
X5.9746Y-4.1624
X6.3246Y-1.1624
X6.3246Y-1.9124
X6.3246Y-2.6624
X6.3246Y-3.4124
X6.3246Y-4.1624
X6.7246Y-1.1624
X6.7246Y-1.9124
X6.7246Y-2.6624
X6.7246Y-3.4124
X6.7246Y-4.1624
X7.0746Y-1.1624
X7.0746Y-1.9124
X7.0746Y-2.6624
X7.0746Y-3.4124
X7.0746Y-4.5374
X7.4746Y-1.1624
X7.4746Y-1.9124
X7.4746Y-2.6624
X7.4746Y-3.4124
X7.4746Y-4.5374
T3
X5.2919Y-6.6626
X5.5065Y-6.6626
T4
X6.9996Y-4.0674
X6.9996Y-5.0074
T5
X3.3746Y-1.0624
X3.3746Y-1.8124
X3.3746Y-2.5624
X3.3746Y-3.3124
X3.3746Y-4.0624
X3.6246Y-0.9624
X3.6246Y-1.7124
X3.6246Y-2.4624
X3.6246Y-3.2124
X3.6246Y-3.9624
X4.1246Y-1.0624
X4.1246Y-1.8124
X4.1246Y-2.5624
X4.1246Y-3.3124
X4.1246Y-4.0624
X4.3746Y-0.9624
X4.3746Y-1.7124
X4.3746Y-2.4624
X4.3746Y-3.2124
X4.3746Y-3.9624
X4.8746Y-1.0624
X4.8746Y-1.8124
X4.8746Y-2.5624
X4.8746Y-3.3124
X4.8746Y-4.0624
X5.1246Y-0.9624
X5.1246Y-1.7124
X5.1246Y-2.4624
X5.1246Y-3.2124
X5.1246Y-3.9624
X5.6246Y-1.0624
X5.6246Y-1.8124
X5.6246Y-2.5624
X5.6246Y-3.3124
X5.6246Y-4.0624
X5.8746Y-0.9624
X5.8746Y-1.7124
X5.8746Y-2.4624
X5.8746Y-3.2124
X5.8746Y-3.9624
X6.3746Y-1.0624
X6.3746Y-1.8124
X6.3746Y-2.5624
X6.3746Y-3.3124
X6.3746Y-4.0624
X6.6246Y-0.9624
X6.6246Y-1.7124
X6.6246Y-2.4624
X6.6246Y-3.2124
X6.6246Y-3.9624
X7.1246Y-1.0624
X7.1246Y-1.8124
X7.1246Y-2.5624
X7.1246Y-3.3124
X7.1246Y-4.4374
X7.3746Y-0.9624
X7.3746Y-1.7124
X7.3746Y-2.4624
X7.3746Y-3.2124
X7.3746Y-4.3374
T6
X7.5984Y-4.0674
X7.5984Y-5.0074
T7
X3.5246Y-1.1624
X3.5246Y-1.9124
X3.5246Y-2.6624
X3.5246Y-3.4124
X3.5246Y-4.1624
X4.2746Y-1.1624
X4.2746Y-1.9124
X4.2746Y-2.6624
X4.2746Y-3.4124
X4.2746Y-4.1624
X5.0246Y-1.1624
X5.0246Y-1.9124
X5.0246Y-2.6624
X5.0246Y-3.4124
X5.0246Y-4.1624
X5.7746Y-1.1624
X5.7746Y-1.9124
X5.7746Y-2.6624
X5.7746Y-3.4124
X5.7746Y-4.1624
X6.5246Y-1.1624
X6.5246Y-1.9124
X6.5246Y-2.6624
X6.5246Y-3.4124
X6.5246Y-4.1624
X7.2746Y-1.1624
X7.2746Y-1.9124
X7.2746Y-2.6624
X7.2746Y-3.4124
X7.2746Y-4.5374
M30
